<svg xmlns="http://www.w3.org/2000/svg" viewBox="0 0 195.1002 17.0763"><defs><style>.a{fill:#434040;}</style></defs><title>Asset 3</title><path class="a" d="M.1891,8.09S1.1124,7.5363,2.8858,6.61a80.2616,80.2616,0,0,1,7.9029-3.6123A51.7173,51.7173,0,0,1,16.711,1.0714,29.815,29.815,0,0,1,24.0387,0,15.5569,15.5569,0,0,1,28.1974.506l.5351.1279a5.2175,5.2175,0,0,1,.523.1807l.4931.1846.5313.2431A6.9626,6.9626,0,0,1,32.2765,2.58a3.6864,3.6864,0,0,1,1.17,2.4385,4.3956,4.3956,0,0,1-.7759,2.5947,9.6726,9.6726,0,0,1-3.8965,3.2324,7.6421,7.6421,0,0,1-2.583.7569,3.58,3.58,0,0,1-1.5532-.1573,2.3424,2.3424,0,0,1-.7944-.4443,2.284,2.284,0,0,1-.5953-.7392,2.5425,2.5425,0,0,1-.1474-1.8047,4.1574,4.1574,0,0,1,.688-1.4014,7.826,7.826,0,0,1,2.0991-1.9336C29.0753,3.1105,32.965,2.7228,36.6744,3.12a32.5972,32.5972,0,0,1,5.5489,1.1572c1.8134.5508,3.6054,1.0879,5.47,1.5371,3.7134.917,7.5342,1.709,11.397,2.6523a70.4737,70.4737,0,0,0,11.9687,1.63c2.0317.1367,4.0776.208,6.1191.1553a29.3085,29.3085,0,0,0,6.0186-.6836,10.2276,10.2276,0,0,0,2.6763-1.0049l.2837-.1777a1.1545,1.1545,0,0,1,.1137-.0674l.1563-.12a6.3178,6.3178,0,0,0,.5718-.4668,4.9973,4.9973,0,0,0,.86-.9561,1.8319,1.8319,0,0,0,.2095-1.96,3.0726,3.0726,0,0,0-1.8472-1.32,3.1751,3.1751,0,0,0-2.3369.2275,2.91,2.91,0,0,0-.9087.792c-.0513.07-.1494.208-.165.2226l-.1934.3487a2.59,2.59,0,0,0-.1894.5283,2.4122,2.4122,0,0,0,.7612,2.2637,7.4173,7.4173,0,0,0,2.43,1.6474,21.1541,21.1541,0,0,0,5.9824,1.5752,38.3179,38.3179,0,0,0,6.2617.2617c4.18-.1455,8.3076-.7851,12.4644-1.2988,4.1513-.5195,8.2373-1.2773,12.2612-2.1045,4.0283-.8047,8.0225-1.5664,12.0034-2.1035a38.9168,38.9168,0,0,1,11.9151-.0879,13.0227,13.0227,0,0,1,2.8828.8877,6.5421,6.5421,0,0,1,2.4629,1.87c.1494.2207.3032.4365.44.66l.3013.73a8.9894,8.9894,0,0,1,.3535,1.414,6.5077,6.5077,0,0,1-.0611,2.9365,3.65,3.65,0,0,1-1.812,2.3487,4.5782,4.5782,0,0,1-2.8877.3779,4.2177,4.2177,0,0,1-2.5576-1.4014,2.5987,2.5987,0,0,1-.5835-1.4707,3.0155,3.0155,0,0,1,.3521-1.51,9.3692,9.3692,0,0,1,1.5049-2.2276,8.748,8.748,0,0,1,2.1113-1.6445,10.2991,10.2991,0,0,1,4.9717-1.1465,16.82,16.82,0,0,1,4.7617.7373,34.8887,34.8887,0,0,0,4.3017.9463,61.5887,61.5887,0,0,0,8.1578.7647,53.0459,53.0459,0,0,0,13.2172-1.0831,22.3747,22.3747,0,0,0,7.7872-3.1591,11.7949,11.7949,0,0,0,1.6928-1.4053c.3452-.3584.5235-.543.5235-.543l.0258-.0273a.3764.3764,0,0,1,.55.5136s-.1845.2042-.542.5987a12.6593,12.6593,0,0,1-1.7587,1.55,17.7521,17.7521,0,0,1-3.2544,1.8808,27.2308,27.2308,0,0,1-4.8028,1.5577,52.4575,52.4575,0,0,1-13.47,1.0547,78.6731,78.6731,0,0,1-8.2759-.7432,35.9464,35.9464,0,0,1-4.44-.9033,16.001,16.001,0,0,0-4.4678-.6416,8.22,8.22,0,0,0-7.686,4.4062,1.6446,1.6446,0,0,0,.0908,1.8965,3.3075,3.3075,0,0,0,1.96,1.1191,3.74,3.74,0,0,0,2.3486-.23,2.6615,2.6615,0,0,0,1.4307-1.8095,6.0244,6.0244,0,0,0-.1314-2.5313,8.1338,8.1338,0,0,0-.4-1.2636l-.2661-.55-.3725-.4834a7.7176,7.7176,0,0,0-4.7115-2.0264,55.2249,55.2249,0,0,0-11.5019.0967c-3.9458.3427-7.957.89-12.0078,1.5185-4.0572.6045-8.1265,1.4287-12.2251,2.3389-2.044.4414-4.1416.8369-6.2324,1.1152a48.81,48.81,0,0,1-6.4034.3867c-4.2754-.05-8.645-.3681-12.7549-2.0517a10.2025,10.2025,0,0,1-2.8881-1.8067,4.0431,4.0431,0,0,1-1.3706-3.4677,4.2113,4.2113,0,0,1,.2631-.9942l.16-.3652c.11-.2178.17-.2959.26-.45a4.72,4.72,0,0,1,1.3628-1.4,5.0425,5.0425,0,0,1,6.9433,1.7217,3.6328,3.6328,0,0,1,.3985,2.1211,4.2751,4.2751,0,0,1-.7354,1.9013,6.6993,6.6993,0,0,1-1.26,1.3721,7.82,7.82,0,0,1-.6665.5078l-.16.1153-.2241.1367-.3916.2275a12.0351,12.0351,0,0,1-3.2246,1.1065c-8.6783,1.41-16.813-.6866-24.709-1.8076a83.9317,83.9317,0,0,1-11.4966-2.586Q44.62,6.1526,41.9122,5.3693a26.1578,26.1578,0,0,0-5.35-.9043,20.3675,20.3675,0,0,0-5.1836.35,12.8258,12.8258,0,0,0-4.5547,1.7471A6.1535,6.1535,0,0,0,25.1593,8.047a1.6022,1.6022,0,0,0-.4209,1.4678c.1538.32.6191.5224,1.3183.4512A6.1005,6.1005,0,0,0,28.09,9.38a8.1562,8.1562,0,0,0,3.2651-2.6269A2.8625,2.8625,0,0,0,31.9,5.1a2.1453,2.1453,0,0,0-.7051-1.44A5.4805,5.4805,0,0,0,29.64,2.6066l-.4273-.2051-.4888-.1885a4.5578,4.5578,0,0,0-.46-.167l-.4712-.1191a14.1265,14.1265,0,0,0-3.7617-.5283,28.5085,28.5085,0,0,0-7.0176.8926,57.1149,57.1149,0,0,0-5.835,1.7519A79.1506,79.1506,0,0,0,3.2672,7.3673C1.4791,8.2335.5611,8.7462.5611,8.7462a.3771.3771,0,0,1-.3784-.6523Z"/></svg>