<svg width="180" height="180" viewBox="0 0 180 180" fill="none" xmlns="http://www.w3.org/2000/svg">
<path fill-rule="evenodd" clip-rule="evenodd" d="M90 180C139.706 180 180 139.706 180 90C180 40.2944 139.706 0 90 0C40.2944 0 0 40.2944 0 90C0 139.706 40.2944 180 90 180ZM133.181 72.8468C132.608 72.9571 132.244 72.6107 132.089 71.8076C131.72 69.8859 132.704 65.4882 135.041 58.6145C134.886 58.5847 134.723 58.5864 134.551 58.6195C133.834 58.7573 132.783 59.4054 131.4 60.5636C130.011 61.6931 128.863 62.8359 127.955 63.992C127.075 65.1425 126.124 66.6935 125.102 68.6449C126.339 64.0945 127.675 59.5992 129.112 55.1591C130.572 50.6848 131.646 47.9203 132.336 46.8657C132.112 46.9385 131.765 46.9903 131.295 47.0212C130.82 47.0234 130.51 47.0383 130.367 47.0658C129.793 47.1761 129.33 47.4734 128.977 47.9576C128.652 48.4364 128.314 49.2301 127.962 50.3387C126.739 54.1694 125.008 60.2322 122.768 68.5272C122.056 70.851 121.513 72.3636 121.139 73.065C120.28 74.6281 119.276 75.52 118.129 75.7405C117.986 75.7681 117.722 75.789 117.338 75.8034C118.06 75.0698 118.633 74.1862 119.059 73.1526C119.485 72.1189 119.607 71.1289 119.425 70.1823C119.243 69.2358 118.679 68.0802 117.733 66.7156C117.33 66.1684 116.964 65.6587 116.636 65.1865C116.307 64.7143 116.065 64.0767 115.911 63.2736C115.619 61.7534 115.916 60.6701 116.803 60.0237C116.959 59.9046 117.151 59.823 117.381 59.7789C117.61 59.7347 117.896 59.7541 118.239 59.8368C118.582 59.9196 118.775 59.838 118.817 59.592C118.888 59.3405 118.705 59.1672 118.271 59.0723C117.859 58.9432 117.453 58.9173 117.051 58.9945C115.531 59.2867 114.432 60.7621 113.753 63.4207C113.349 65.0526 112.873 66.8254 112.323 68.739C112.231 68.8622 112.159 69.039 112.107 69.2692C112.016 69.6793 111.921 70.075 111.821 70.4565C111.703 70.8552 111.582 71.2595 111.458 71.6694C111.061 71.7753 110.724 72.1079 110.445 72.6672C110.194 73.221 110.121 73.7703 110.226 74.3153C110.245 74.4154 110.266 74.5125 110.287 74.6066C109.247 76.5676 107.958 77.6958 106.423 77.991C105.763 78.1178 105.203 77.9876 104.741 77.6004C104.304 77.179 104.007 76.5667 103.853 75.7636C103.621 74.5589 103.613 73.4304 103.827 72.378C104.429 72.2622 105.268 71.9076 106.344 71.3141C107.414 70.692 108.217 70.0765 108.755 69.4676C110.517 67.493 111.232 65.6453 110.901 63.9244C110.808 63.4368 110.478 63.039 109.913 62.7312C109.331 62.4863 108.739 62.4217 108.136 62.5375C107.534 62.6533 106.931 62.918 106.326 63.3317C105.059 64.17 104.017 65.3222 103.198 66.7882C102.374 68.2256 101.787 69.7363 101.437 71.3204C101.354 71.7149 101.29 72.1009 101.244 72.4786C100.325 75.4007 99.3491 77.4305 98.3159 78.568C97.7798 79.028 97.2679 79.3048 96.7803 79.3986C96.35 79.4813 95.9987 79.3555 95.7262 79.0212C95.4538 78.6869 95.2845 78.3477 95.2183 78.0035C95.1466 77.6306 95.1179 77.2495 95.1323 76.8601L95.2782 72.2814C97.1184 69.7862 98.5709 67.0532 99.6357 64.0825L102.131 63.6027C102.274 63.5752 102.361 63.4842 102.391 63.3297C102.444 63.1411 102.428 62.9806 102.343 62.8482C102.281 62.6816 102.179 62.6121 102.035 62.6397L99.97 63.0367C100.369 61.7107 100.764 60.2816 101.153 58.7493C101.543 57.2171 101.644 55.9633 101.456 54.9881C101.263 53.9842 100.807 53.388 100.086 53.1993C99.932 53.1695 99.6827 53.1877 99.3385 53.2538C99.023 53.3145 98.5447 53.689 97.9038 54.3773C97.2573 55.037 96.6356 56.2123 96.0387 57.9034C95.4417 59.5945 94.8448 61.6723 94.2478 64.1367L91.6664 64.633C91.523 64.6606 91.4248 64.7687 91.3718 64.9573C91.342 65.1117 91.358 65.2722 91.4198 65.4388C91.5047 65.5712 91.6189 65.6236 91.7623 65.5961L93.9995 65.166C93.3179 68.539 92.8983 71.3412 92.7407 73.5726C91.822 76.7183 90.9669 78.8753 90.1753 80.0437C89.6777 80.7045 89.1565 81.0872 88.6115 81.192C87.7223 81.3629 87.1978 81.0325 87.0379 80.2007C86.8945 79.455 86.9646 78.5046 87.2482 77.3496L89.1434 68.6425C89.331 68.0711 89.3454 67.6817 89.1865 67.4743C89.0222 67.2382 88.6102 67.1835 87.9505 67.3104L85.5924 67.8083C86.0248 68.201 86.2686 68.5408 86.3238 68.8276C86.3789 69.1145 86.3943 69.3494 86.37 69.5326L85.308 75.2323C83.995 79.7622 82.7796 82.1347 81.6617 82.3496C80.7151 82.5316 80.3909 81.4637 80.6889 79.146C80.7794 78.5337 80.9019 77.8558 81.0564 77.1123C81.2395 76.3633 81.4017 75.7372 81.543 75.2342C81.7074 74.697 81.869 74.1454 82.0279 73.5795C82.21 72.9794 82.4042 72.2877 82.6105 71.5045C82.8113 70.6926 82.8759 70.1002 82.8042 69.7273C82.7325 69.3544 82.6597 69.1305 82.5858 69.0555C81.1506 69.4801 79.9454 69.7862 78.9702 69.9736C78.0237 70.1556 77.2608 70.2874 76.6816 70.369C78.096 68.9074 78.6791 67.5312 78.431 66.2405C78.3648 65.8963 78.2639 65.6034 78.1282 65.3618C77.687 64.6139 77.1509 64.3005 76.5199 64.4218C75.8888 64.5431 75.5728 65.0649 75.5716 65.9872C75.6144 68.6855 75.3263 71.5962 74.7073 74.7192C74.0882 77.8422 73.1796 80.6193 71.9814 83.0506C71.9461 83.1764 71.9367 83.2823 71.9532 83.3683C72.0359 83.7986 72.1959 83.857 72.4331 83.5437C73.7879 81.6177 74.9139 78.1147 75.8111 73.0347L76.0627 71.5587C78.3683 71.1749 79.6066 71.4276 79.7775 72.3168C79.8161 72.5176 79.8145 72.741 79.7725 72.987C79.7251 73.2043 79.4614 73.9985 78.9814 75.3697C78.5015 76.7409 78.1721 77.8899 77.9933 78.8165C77.8432 79.7376 77.8178 80.4563 77.9171 80.9726C78.0163 81.4889 78.1338 81.8679 78.2695 82.1095C78.9589 83.3748 79.8629 83.9 80.9815 83.6849C81.9854 83.4919 82.9055 82.631 83.7417 81.1021C84.1794 80.3433 84.5347 79.6506 84.8077 79.0241C84.8219 79.2652 84.8505 79.4975 84.8934 79.7207C85.0423 80.4951 85.4068 81.1537 85.987 81.6965C86.5673 82.2393 87.3737 82.4115 88.4062 82.213C89.4675 82.009 90.4565 81.1199 91.3734 79.5457C91.7099 78.9754 92.0508 78.196 92.3961 77.2076C92.5077 76.8981 92.6067 76.6155 92.6932 76.3598C92.7217 76.8927 92.7763 77.3688 92.857 77.7882C93.05 78.7921 93.4967 79.5688 94.1972 80.1182C94.8976 80.6676 95.6925 80.8569 96.5816 80.6859C98.3313 80.3496 99.7406 78.7848 100.81 75.9917C100.935 75.6868 101.07 75.3169 101.215 74.8822C101.241 75.1193 101.276 75.3524 101.32 75.5814C101.568 76.8721 102.165 77.8131 103.111 78.4045C104.058 78.9958 105.105 79.1812 106.252 78.9607C108.133 78.5991 109.603 77.5208 110.663 75.7257C111.414 77.1727 112.784 77.7049 114.775 77.3222C115.291 77.223 115.852 76.9665 116.456 76.5529C117.515 76.6467 118.542 76.4195 119.537 75.8713C120.158 75.5437 120.666 75.0893 121.06 74.5079L121.243 74.2228C121.061 74.9094 120.876 75.6082 120.688 76.3194C120.867 76.166 121.338 75.9862 122.101 75.78C122.962 75.6146 123.451 75.2975 123.569 74.8286C124.791 70.6676 126.253 67.442 127.955 65.152C129.083 63.5966 129.891 62.772 130.379 62.6783C130.867 62.5846 131.141 62.6954 131.201 63.0109C131.256 63.2978 131.176 63.7297 130.96 64.3066C130.066 66.6199 129.564 68.263 129.454 69.236C129.343 70.2089 129.351 71.0253 129.478 71.685C129.599 72.316 129.825 72.7931 130.155 73.1164C130.883 73.8092 131.735 74.0619 132.71 73.8744C134.201 73.5877 135.414 72.3136 136.347 70.0522C136.785 68.927 137.104 68.0329 137.304 67.3699C137.527 66.6727 137.732 65.964 137.921 65.2436C138.133 64.4891 138.225 64.0401 138.197 63.8967C138.17 63.7533 138.062 63.6551 137.873 63.6021C137.713 63.5436 137.571 63.7345 137.448 64.1746C135.952 69.6969 134.529 72.5877 133.181 72.8468ZM69.6795 54.3603C73.0672 55.5828 75.0065 57.4705 75.4972 60.0232C75.8832 62.031 75.1781 64.3972 73.382 67.1219C72.3504 68.7181 71.0392 70.1748 69.4484 71.4918C67.8862 72.8034 66.286 73.8397 64.6478 74.6008C61.8027 75.8913 59.1754 76.7681 56.7661 77.2313C56.2498 77.3306 55.7308 77.4155 55.209 77.4861C53.7052 80.9576 52.0558 83.9813 50.2608 86.557C47.6041 90.2205 44.3254 92.4271 40.4246 93.177C36.6958 93.8938 34.2055 93.3167 32.9535 91.4457C32.659 90.9967 32.4511 90.4567 32.3298 89.8257C32.203 89.166 32.3977 88.3998 32.9141 87.5273C33.7206 86.1528 35.056 85.2863 36.9203 84.9279C38.125 84.6963 39.4284 84.6688 40.8305 84.8454C41.3512 84.9238 41.5591 85.0771 41.4543 85.3055C41.3616 85.4423 40.9777 85.4566 40.3026 85.3484C39.6275 85.2403 38.8167 85.2772 37.8701 85.4592C36.9523 85.6356 36.2038 86.1513 35.6246 87.0062C35.0685 87.8269 34.8677 88.6388 35.0221 89.4419C35.0827 89.7574 35.2007 90.0619 35.3761 90.3554C36.1328 91.816 37.5867 92.3395 39.7379 91.926C42.9504 91.3084 45.8187 89.2104 48.343 85.6319C50.138 83.0561 51.8746 78.707 53.5529 72.5846C54.2116 70.2868 55.0844 67.7098 56.1712 64.8538C57.2525 61.9691 58.4341 59.4518 59.7161 57.3018L60.3417 56.3785C60.8117 55.5743 61.2088 54.9329 61.5332 54.4541C59.4129 54.5643 57.1768 54.8455 54.8248 55.2976C52.4729 55.7498 50.2886 56.3779 48.2719 57.182C46.2498 57.9574 44.5167 58.7664 43.0726 59.6091C41.623 60.4232 40.1778 61.4148 38.737 62.5841C37.3194 63.7192 36.1896 65.0368 35.3478 66.5371C34.228 68.4477 33.839 70.2921 34.1809 72.0704C34.3904 73.1604 34.9734 74.1042 35.9298 74.9018C36.9546 75.7458 38.1123 76.0437 39.403 75.7956C40.7224 75.5419 41.888 74.7974 42.8996 73.5619C43.94 72.3209 44.5777 70.9194 44.8128 69.3573C44.8029 69.151 44.8354 69.0109 44.9104 68.937C45.0086 68.8289 45.109 68.8096 45.2116 68.8791C45.3142 68.9486 45.3848 69.0838 45.4234 69.2845C45.7531 71.1544 45.3057 72.7722 44.0811 74.1378C42.8797 75.4693 41.4185 76.3004 39.6975 76.6312C37.7471 77.0062 36.0449 76.7386 34.591 75.8284C33.1371 74.9182 32.2365 73.5596 31.8891 71.7526C31.5693 70.089 31.7271 68.512 32.3627 67.0217C32.9927 65.5027 33.8444 64.2087 34.9178 63.1398C35.9913 62.0709 37.2677 61.0523 38.7471 60.0838C41.2624 58.47 43.9702 57.1613 46.8704 56.1576C49.7939 55.1197 52.5463 54.3526 55.1277 53.8564C57.7379 53.3546 60.1913 53.1209 62.4881 53.1552C63.3662 52.1536 64.165 51.435 64.8843 50.9992C65.6036 50.5635 66.0062 50.3374 66.0923 50.3209C66.207 50.2988 66.2815 50.2994 66.3157 50.3225C66.4878 50.2895 66.5357 50.3843 66.4596 50.6072C66.4066 50.7958 66.1292 51.1317 65.6272 51.6149C65.1539 52.0925 64.7088 52.6391 64.2917 53.2546C66.2211 53.3893 68.0171 53.7579 69.6795 54.3603ZM56.24 76.351C58.3338 75.9484 60.5308 75.1543 62.8309 73.9686C65.1543 72.7486 67.1274 71.254 68.7502 69.4846C71.8867 65.9966 73.171 62.7754 72.6031 59.8211C71.9579 56.4653 68.9812 54.673 63.6728 54.4443C62.4967 56.9904 61.0706 60.789 59.3946 65.8403C57.7185 70.8915 56.4662 74.4337 55.6376 76.4668L56.24 76.351ZM112.385 71.1788C112.35 71.3226 112.314 71.4641 112.278 71.6032C112.839 71.5302 113.198 71.9064 113.357 72.7319C113.682 74.4242 114.503 75.4413 115.817 75.7834C116.892 74.5656 117.22 72.8667 116.801 70.6869C116.63 69.7977 116.295 68.598 115.797 67.0877C115.298 65.5775 114.996 64.5499 114.892 64.0049C114.787 63.4599 114.729 63.0843 114.72 62.878C113.758 66.3042 113.055 68.771 112.61 70.2783C112.545 70.5448 112.47 70.845 112.385 71.1788ZM88.5579 65.3644C89.0455 65.2707 89.457 65.0131 89.7924 64.5917C90.1277 64.1703 90.2916 63.7076 90.2839 63.2034C90.2762 62.6993 90.0815 62.3055 89.6999 62.0219C89.3469 61.7329 88.9266 61.6352 88.439 61.7289C87.9514 61.8227 87.5399 62.0802 87.2045 62.5016C86.8691 62.923 86.7052 63.3858 86.7129 63.8899C86.7493 64.3886 86.944 64.7824 87.297 65.0715C87.65 65.3605 88.0703 65.4582 88.5579 65.3644ZM99.0235 63.2186C100.266 59.4702 100.76 56.9363 100.507 55.6169C100.396 55.0432 100.241 54.7757 100.04 54.8143C99.7245 54.8749 99.3251 55.4276 98.8419 56.4723C98.3873 57.5114 97.7308 59.8981 96.8723 63.6322L99.0235 63.2186ZM98.6461 64.2727L96.624 64.6614C96.4342 65.5307 96.0265 67.587 95.4008 70.8302C96.6408 68.9262 97.7226 66.7404 98.6461 64.2727ZM108.878 63.3765C109.336 63.2883 109.621 63.531 109.731 64.1046C110.018 65.5961 109.502 67.1676 108.184 68.8189C107.606 69.5249 106.877 70.141 105.996 70.6671C105.145 71.1877 104.475 71.4949 103.987 71.5887C104.446 69.9538 105.048 68.4403 105.791 67.0482C107.046 64.7548 108.074 63.5309 108.878 63.3765ZM112.367 75.2421C112.4 75.4142 112.451 75.5979 112.518 75.7931C112.896 76.5234 113.501 76.8086 114.333 76.6487C114.677 76.5826 114.953 76.4701 115.161 76.3112C113.972 75.8555 113.192 74.8902 112.819 73.4153C112.402 74.0308 112.252 74.6398 112.367 75.2421ZM93.4997 98.3528L95.2323 97.6182C96.0663 97.1604 96.7602 96.6701 97.3141 96.1473C97.9142 95.556 98.1316 94.8301 97.9662 93.9697C97.7831 93.1721 97.2183 92.8643 96.2718 93.0462C95.9563 93.1069 95.5713 93.2701 95.1167 93.536C94.6854 93.7676 94.2027 94.3511 93.6687 95.2866C93.1634 96.2165 92.8341 96.9788 92.6807 97.5734C78.4463 102.897 71.2202 109.402 71.0024 117.088C71.0034 117.712 71.0536 118.283 71.1529 118.799C71.4782 120.491 72.3342 121.695 73.7208 122.41C75.1074 123.125 76.317 123.383 77.3496 123.184C78.4108 122.98 79.3673 122.618 80.219 122.097C81.9223 121.056 83.0851 119.524 83.7074 117.501C84.0594 116.392 84.1555 115.422 83.9956 114.59C83.8301 113.73 83.4921 112.977 82.9813 112.331C82.6405 111.951 82.368 112.003 82.1639 112.489C82.0822 112.683 82.0784 112.817 82.1523 112.892C82.4203 113.049 82.6316 113.529 82.786 114.332C83.0947 115.938 82.9032 117.417 82.2115 118.77C81.7062 119.7 81.042 120.422 80.219 120.938C79.4247 121.447 78.6404 121.776 77.8659 121.925C77.1202 122.069 76.3458 121.831 75.5427 121.212C74.7397 120.593 74.2223 119.681 73.9908 118.477C73.8805 117.903 73.8452 117.255 73.885 116.534C73.9668 114.02 74.7695 111.62 76.2931 109.334C77.5265 107.55 79.4042 105.792 81.9261 104.058C84.4017 102.392 87.8288 100.648 92.2074 98.8243C90.6737 103.224 89.413 108.269 88.4253 113.962C87.8791 117.309 86.7988 120.818 85.1847 124.489C84.2292 126.636 83.1287 128.647 81.8831 130.522C80.632 132.368 79.0461 134.175 77.1254 135.942C75.2047 137.71 73.1119 139.123 70.847 140.183C69.7549 140.691 68.8503 141.013 68.1332 141.151C67.4503 141.312 66.7791 141.456 66.1194 141.583C65.4597 141.71 64.4712 141.751 63.1541 141.707C60.1932 141.622 57.7729 140.867 55.8932 139.444C54.3952 138.305 53.4615 136.774 53.092 134.852C52.6068 132.328 53.0173 129.9 54.3236 127.566C55.1599 126.037 55.9868 125.001 56.8043 124.457C57.1672 124.179 57.2946 123.991 57.1865 123.893C57.1126 123.818 56.9323 123.808 56.6454 123.863C55.882 124.069 54.9564 124.902 53.8686 126.36C52.7753 127.79 52.0764 129.337 51.7718 131.001C51.4904 132.632 51.4572 134.006 51.6722 135.125C51.8873 136.244 52.1641 137.142 52.5027 137.821C53.4282 139.695 54.8412 141.089 56.7419 142.003C59.5218 143.312 62.9769 143.57 67.1072 142.776C75.9987 141.067 82.5954 136.006 86.8971 127.595C88.06 125.289 88.9719 122.839 89.6329 120.243C90.2883 117.619 90.7011 115.279 90.8711 113.224C91.3679 107.299 92.2441 102.342 93.4997 98.3528ZM96.5066 94.9641C96.725 95.6359 95.8976 96.3601 94.0244 97.1366C94.896 95.4819 95.4895 94.6242 95.805 94.5636C96.1492 94.4974 96.3831 94.6309 96.5066 94.9641ZM105.29 120.668C105.657 119.021 105.72 117.567 105.477 116.305C105.119 114.441 104.187 113.46 102.681 113.363C102.469 113.344 102.248 113.357 102.019 113.401C101.244 113.55 100.518 114.105 99.841 115.068C99.3953 115.69 98.9755 116.291 98.5817 116.872C98.2165 117.448 97.6775 118.667 96.9648 120.529L96.369 122.071C96.7585 119.766 96.7851 117.738 96.4488 115.988C96.3936 115.701 96.301 115.452 96.1708 115.239C96.0694 115.02 95.8752 114.939 95.5884 114.994C95.296 115.02 94.317 115.342 92.6511 115.96C93.0858 116.055 93.4051 116.633 93.6091 117.694C93.8076 118.727 93.7673 119.909 93.4881 121.242C93.2685 122.266 93.1058 122.966 92.9998 123.343C92.8884 123.692 92.9187 123.85 93.0908 123.817C93.3721 123.733 93.6264 123.431 93.8537 122.912C93.8514 124.756 93.0646 128.476 91.4933 134.073C89.8989 139.703 88.8441 142.88 88.3289 143.604C88.5528 143.531 88.9025 143.493 89.378 143.491C89.8248 143.495 90.0912 143.488 90.1772 143.471L90.7796 143.356C91.1238 143.29 91.4547 143.077 91.7725 142.719C92.0902 142.36 92.3759 141.681 92.6297 140.68L94.7568 129.698C95.8312 130.027 96.77 130.114 97.5731 129.959C98.4049 129.799 99.1198 129.573 99.7177 129.279C101.282 128.443 102.503 127.212 103.38 125.586C104.286 123.955 104.922 122.315 105.29 120.668ZM102.788 115.082C103.061 115.416 103.241 115.813 103.329 116.272C103.517 117.247 103.343 118.589 102.809 120.298C101.976 122.926 100.753 125.229 99.1403 127.204C98.1287 128.44 97.293 129.121 96.6333 129.248C95.9736 129.375 95.4215 129.287 94.9769 128.986C96.579 123.86 97.8606 120.238 98.8215 118.12C99.8112 115.996 100.808 114.838 101.812 114.645C102.213 114.568 102.539 114.713 102.788 115.082ZM112.816 126.181C113.2 126.167 113.463 126.146 113.607 126.119C114.754 125.898 115.757 125.006 116.617 123.443C117.047 122.636 117.7 120.757 118.578 117.804L119.535 112.665C119.56 112.482 119.544 112.247 119.489 111.96C119.434 111.674 119.19 111.334 118.758 110.941L121.116 110.443C121.776 110.316 122.188 110.371 122.352 110.607C122.511 110.814 122.496 111.204 122.309 111.775L120.414 120.482C120.13 121.637 120.06 122.588 120.203 123.334C120.363 124.165 120.888 124.496 121.777 124.325C122.322 124.22 122.843 123.837 123.341 123.177C124.132 122.008 124.987 119.851 125.906 116.705C126.064 114.474 126.483 111.672 127.165 108.299L124.928 108.729C124.784 108.756 124.67 108.704 124.585 108.572C124.523 108.405 124.507 108.245 124.537 108.09C124.59 107.901 124.688 107.793 124.832 107.766L127.413 107.27C128.01 104.805 128.607 102.727 129.204 101.036C129.801 99.3452 130.423 98.1698 131.069 97.5101C131.71 96.8218 132.188 96.4473 132.504 96.3867C132.848 96.3205 133.097 96.3023 133.252 96.3321C133.972 96.5208 134.429 97.1171 134.622 98.121C134.809 99.0962 134.708 100.35 134.319 101.882C133.929 103.414 133.535 104.844 133.135 106.17L135.201 105.773C135.344 105.745 135.447 105.814 135.508 105.981C135.593 106.113 135.609 106.274 135.556 106.463C135.526 106.617 135.44 106.708 135.296 106.736L132.801 107.215C131.736 110.186 130.284 112.919 128.444 115.414L128.298 119.993C128.283 120.382 128.312 120.763 128.384 121.136C128.45 121.481 128.619 121.82 128.892 122.154C129.164 122.488 129.515 122.614 129.946 122.531C130.433 122.438 130.945 122.161 131.481 121.701C132.4 120.689 133.274 118.972 134.102 116.549C134.263 114.519 134.982 112.361 136.259 110.075C137.327 108.204 138.818 106.832 140.732 105.958C141.25 105.71 141.752 105.539 142.24 105.445C143.559 105.192 144.766 105.436 145.86 106.177C146.208 106.437 146.352 106.722 146.292 107.031C146.233 107.34 146.011 107.501 145.627 107.516C145.113 106.544 144.325 106.16 143.264 106.364C142.031 106.601 140.698 107.868 139.266 110.166C138.454 111.512 137.752 113.045 137.161 114.765C136.401 116.844 136.128 118.443 136.343 119.562C136.558 120.68 137.024 121.171 137.741 121.033C139.462 120.702 141.207 117.63 142.974 111.818C143.315 110.652 143.636 109.846 143.937 109.402C144.233 108.929 144.668 108.637 145.241 108.527C145.356 108.505 145.651 108.492 146.127 108.49C146.631 108.483 146.992 108.428 147.211 108.327C146.794 108.942 146.288 110.259 145.695 112.276C145.095 114.265 144.784 115.738 144.759 116.694C144.758 117.617 144.813 118.365 144.923 118.938C145.028 119.483 145.295 119.714 145.726 119.632C146.271 119.527 146.848 118.895 147.458 117.737C148.353 116.048 149.148 113.918 149.843 111.345C149.908 111.065 150.01 110.897 150.148 110.84C150.361 110.71 150.492 110.774 150.541 111.032C150.569 111.176 150.559 111.356 150.512 111.573C148.898 117.416 147.188 120.51 145.381 120.858C144.55 121.018 143.798 120.746 143.128 120.042C142.787 119.661 142.547 119.112 142.41 118.395C142.272 117.678 142.247 116.776 142.335 115.688C140.752 119.829 139.129 122.06 137.465 122.38C137.006 122.468 136.563 122.404 136.135 122.189C135.158 121.752 134.53 120.802 134.248 119.34C134.207 119.124 134.172 118.906 134.145 118.687C134.087 118.845 134.03 118.991 133.975 119.125C132.906 121.918 131.497 123.482 129.747 123.819C128.858 123.99 128.063 123.8 127.363 123.251C126.662 122.702 126.215 121.925 126.022 120.921C125.942 120.502 125.887 120.025 125.859 119.493C125.772 119.748 125.673 120.031 125.562 120.34C125.216 121.329 124.875 122.108 124.539 122.679C123.622 124.253 122.633 125.142 121.572 125.346C120.539 125.544 119.733 125.372 119.152 124.829C118.572 124.287 118.208 123.628 118.059 122.854C118.026 122.685 118.002 122.512 117.986 122.333C117.962 122.396 117.938 122.459 117.913 122.525C117.714 123.039 117.496 123.452 117.259 123.766L116.537 124.886C116.144 125.467 115.636 125.922 115.015 126.249C114.02 126.798 112.993 127.025 111.934 126.931C111.329 127.345 110.769 127.601 110.253 127.7C108.216 128.092 106.828 127.526 106.089 126.002C105.932 125.646 105.803 125.21 105.704 124.693C105.599 124.148 105.672 123.599 105.922 123.045C106.201 122.486 106.539 122.153 106.935 122.047C107.863 118.984 108.628 116.234 109.231 113.799C109.909 111.14 111.009 109.665 112.529 109.373C112.93 109.295 113.337 109.321 113.748 109.45C114.183 109.545 114.365 109.718 114.294 109.97C114.253 110.216 114.06 110.298 113.717 110.215C113.374 110.132 113.088 110.113 112.858 110.157C112.629 110.201 112.436 110.283 112.281 110.402C111.394 111.048 111.096 112.131 111.389 113.652C111.543 114.455 111.784 115.092 112.113 115.565C112.442 116.037 112.808 116.546 113.21 117.094C114.157 118.458 114.721 119.614 114.903 120.56C115.085 121.507 114.963 122.497 114.537 123.531C114.111 124.564 113.537 125.448 112.816 126.181ZM111.295 126.161C112.37 124.944 112.697 123.245 112.278 121.065C112.107 120.176 111.773 118.976 111.274 117.466C110.776 115.956 110.474 114.928 110.369 114.383C110.264 113.838 110.207 113.462 110.197 113.256C108.855 118.035 108.017 120.947 107.683 121.993C108.285 121.877 108.669 122.249 108.835 123.11C109.16 124.802 109.98 125.819 111.295 126.161ZM107.845 125.62C107.878 125.792 107.928 125.976 107.996 126.171C108.374 126.901 108.979 127.187 109.811 127.027C110.155 126.961 110.431 126.848 110.638 126.689C109.45 126.234 108.67 125.268 108.297 123.793C107.88 124.409 107.729 125.018 107.845 125.62ZM121.723 108.497C122.211 108.404 122.622 108.146 122.958 107.725C123.293 107.303 123.457 106.84 123.449 106.336C123.442 105.832 123.247 105.438 122.865 105.155C122.512 104.866 122.092 104.768 121.604 104.862C121.117 104.956 120.705 105.213 120.37 105.634C120.034 106.056 119.871 106.519 119.878 107.023C119.915 107.521 120.109 107.915 120.462 108.204C120.815 108.493 121.236 108.591 121.723 108.497ZM132.189 106.351C133.431 102.603 133.926 100.069 133.672 98.7497C133.562 98.176 133.406 97.9085 133.205 97.9471C132.89 98.0078 132.491 98.5604 132.007 99.6051C131.553 100.644 130.896 103.031 130.038 106.765L132.189 106.351ZM131.812 107.406L129.789 107.794C129.6 108.664 129.192 110.72 128.566 113.963C129.806 112.059 130.888 109.873 131.812 107.406ZM113.491 91.92L114.903 91.8779C115.493 91.8779 115.886 92.0043 116.083 92.2572C116.181 92.3696 116.23 92.482 116.23 92.5944C116.23 92.7068 116.195 92.8051 116.125 92.8894C115.957 93.1002 115.64 93.2055 115.177 93.2055C114.376 93.2055 113.667 92.8965 113.048 92.2783C111.475 92.5171 110.281 93.3531 109.466 94.7861C108.946 95.7133 108.686 96.6195 108.686 97.5046C108.686 97.9963 108.763 98.481 108.918 98.9587C109.381 100.307 110.386 100.982 111.931 100.982C113.308 100.982 114.502 100.518 115.514 99.5909C116.526 98.6637 117.031 97.7435 117.031 96.8302C117.031 96.3947 116.842 96.0365 116.462 95.7555C116.097 95.4604 115.704 95.2919 115.282 95.2497C114.875 95.1935 114.524 95.1654 114.228 95.1654C113.947 95.1654 113.575 95.2005 113.112 95.2708C112.662 95.327 112.212 95.5096 111.763 95.8187C111.229 96.184 110.962 96.6687 110.962 97.2728C110.962 97.8769 111.433 98.4248 112.374 98.9166C112.514 99.0009 112.571 99.1133 112.543 99.2537C112.529 99.3802 112.472 99.4153 112.374 99.3591C111.489 98.8814 110.864 98.3405 110.498 97.7364C110.246 97.343 110.119 97.0129 110.119 96.746C110.119 96.479 110.154 96.2613 110.224 96.0927C110.393 95.6009 110.815 95.1865 111.489 94.8493C112.163 94.5121 113.02 94.3435 114.06 94.3435H117.79C118.521 94.3435 119.42 94.0977 120.487 93.6059C121.007 93.3671 121.387 93.0861 121.625 92.763C121.738 92.5944 121.794 92.4188 121.794 92.2361C121.794 92.0394 121.752 91.8709 121.668 91.7304C121.583 91.5899 121.548 91.4915 121.562 91.4353C121.576 91.3791 121.611 91.351 121.668 91.351C121.738 91.351 121.794 91.3862 121.836 91.4564C122.033 91.7936 122.131 92.1167 122.131 92.4258C122.131 92.7208 122.04 92.9948 121.857 93.2477C121.506 93.7816 120.909 94.2101 120.066 94.5332C119.223 94.8563 118.352 95.0179 117.453 95.0179H117.347C117.881 95.4534 118.148 96.0084 118.148 96.6827C118.148 97.624 117.6 98.5934 116.504 99.5909C115.985 100.083 115.317 100.483 114.502 100.792C113.688 101.101 112.831 101.256 111.931 101.256C109.754 101.256 108.215 100.624 107.316 99.3591C106.867 98.7269 106.642 98.1158 106.642 97.5257C106.642 96.9356 106.733 96.3877 106.916 95.8819C107.408 94.5472 108.398 93.5146 109.887 92.7841C110.744 92.3626 111.707 92.0956 112.774 91.9832C112.381 91.4353 112.184 90.7469 112.184 89.918C112.198 89.0891 112.564 88.3094 113.28 87.5788C113.997 86.8482 114.819 86.3214 115.746 85.9983C116.687 85.6611 117.6 85.4925 118.485 85.4925C119.216 85.4925 119.834 85.64 120.34 85.935C120.86 86.2301 121.12 86.7007 121.12 87.347C121.12 87.7544 120.993 88.1197 120.74 88.4428C120.487 88.7519 120.199 88.9065 119.876 88.9065C119.567 88.9065 119.314 88.8151 119.118 88.6325C118.935 88.4358 118.844 88.197 118.844 87.916C118.844 87.635 118.935 87.4032 119.118 87.2205C119.314 87.0379 119.539 86.9466 119.792 86.9466C119.961 86.9466 120.122 86.9887 120.277 87.073C120.431 87.1433 120.523 87.2276 120.551 87.3259C120.565 87.2416 120.572 87.1573 120.572 87.073C120.572 86.7639 120.445 86.5251 120.192 86.3565C119.925 86.1598 119.525 86.0615 118.991 86.0615C118.457 86.0615 117.832 86.209 117.116 86.504C116.399 86.785 115.725 87.1995 115.093 87.7474C114.46 88.2953 113.962 88.9697 113.596 89.7705C113.4 90.2201 113.301 90.6205 113.301 90.9717C113.301 91.3229 113.364 91.639 113.491 91.92ZM115.872 92.5733C115.872 92.3204 115.352 92.194 114.313 92.194C114.102 92.194 113.884 92.201 113.659 92.2151C113.997 92.6365 114.446 92.8473 115.008 92.8473C115.584 92.8473 115.872 92.756 115.872 92.5733Z" fill="#C1272D"/>
</svg>
