<svg width="429" height="350" viewBox="0 0 429 350" fill="none" xmlns="http://www.w3.org/2000/svg">
<path fill-rule="evenodd" clip-rule="evenodd" d="M362.283 90.6709C362.84 93.5672 364.153 94.8165 366.222 94.4188C371.083 93.4842 376.212 83.0592 381.608 63.1437C382.054 61.5564 382.565 60.8681 383.142 61.079C383.822 61.27 384.212 61.6241 384.312 62.1413C384.411 62.6585 384.079 64.2777 383.315 66.9989C382.634 69.5967 381.892 72.1528 381.088 74.6671C380.368 77.058 379.218 80.2824 377.638 84.3403C374.272 92.4958 369.9 97.0905 364.521 98.1246C361.004 98.8007 357.933 97.8894 355.307 95.3908C354.118 94.2251 353.304 92.5044 352.867 90.2287C352.409 87.8496 352.38 84.9056 352.778 81.3967C353.176 77.8878 354.986 71.9621 358.209 63.6196C358.989 61.539 359.28 59.9815 359.081 58.9471C358.862 57.8092 357.874 57.4094 356.115 57.7474C354.357 58.0855 351.442 61.0591 347.372 66.6684C341.237 74.9271 335.965 86.5596 331.556 101.566C331.13 103.257 329.365 104.4 326.262 104.997C323.509 105.741 321.81 106.389 321.166 106.942C321.844 104.377 322.511 101.857 323.169 99.381L322.507 100.409C321.086 102.506 319.256 104.145 317.016 105.326C313.428 107.303 309.724 108.123 305.905 107.784C303.724 109.276 301.703 110.201 299.841 110.559C292.663 111.939 287.719 110.02 285.011 104.801C281.19 111.275 275.888 115.164 269.105 116.467C264.968 117.263 261.192 116.594 257.779 114.462C254.366 112.329 252.212 108.935 251.317 104.281C251.158 103.455 251.032 102.614 250.938 101.759C250.417 103.327 249.93 104.661 249.478 105.76C245.623 115.833 240.54 121.476 234.23 122.689C231.023 123.306 228.157 122.623 225.631 120.642C223.105 118.661 221.494 115.86 220.798 112.239C220.507 110.727 220.31 109.009 220.207 107.088C219.895 108.01 219.538 109.029 219.136 110.145C217.89 113.71 216.661 116.521 215.447 118.577C212.141 124.254 208.574 127.461 204.747 128.196C201.023 128.912 198.115 128.291 196.022 126.334C193.93 124.376 192.615 122.001 192.078 119.208C191.923 118.403 191.82 117.566 191.769 116.696C190.784 118.956 189.503 121.454 187.925 124.19C184.909 129.704 181.591 132.809 177.97 133.505C173.936 134.28 170.676 132.386 168.19 127.823C167.701 126.952 167.277 125.585 166.919 123.723C166.561 121.861 166.653 119.269 167.194 115.948C167.839 112.606 169.027 108.462 170.757 103.517C172.488 98.5723 173.439 95.7079 173.61 94.9241C173.762 94.037 173.768 93.2314 173.629 92.5073C173.012 89.3007 168.546 88.3893 160.231 89.7733L159.324 95.0963C156.089 113.417 152.028 126.05 147.142 132.996C146.286 134.125 145.71 133.915 145.411 132.363C145.352 132.053 145.385 131.671 145.513 131.217C149.834 122.449 153.111 112.434 155.343 101.171C157.576 89.9084 158.615 79.4115 158.46 69.6803C158.465 66.3544 159.604 64.4727 161.88 64.0352C164.156 63.5978 166.089 64.7277 167.68 67.4252C168.17 68.2965 168.534 69.3528 168.772 70.594C169.667 75.2488 167.564 80.2117 162.464 85.4827C164.552 85.1885 167.303 84.7132 170.717 84.057C174.234 83.3809 178.58 82.2772 183.756 80.7458C184.023 81.0164 184.285 81.824 184.544 83.1687C184.802 84.5134 184.569 86.6498 183.845 89.5778C183.101 92.4025 182.401 94.8969 181.744 97.0611C181.171 99.1019 180.588 101.091 179.995 103.029C179.486 104.843 178.901 107.1 178.24 109.802C177.683 112.483 177.241 114.928 176.915 117.136C175.84 125.494 177.01 129.345 180.423 128.689C184.455 127.914 188.838 119.358 193.573 103.022L197.403 82.4664C197.491 81.806 197.435 80.9586 197.236 79.9242C197.038 78.8898 196.158 77.6644 194.599 76.248L203.103 74.4523C205.482 73.9949 206.968 74.1919 207.561 75.0433C208.134 75.7913 208.082 77.1957 207.405 79.2564L200.57 110.657C199.548 114.823 199.295 118.25 199.812 120.939C200.389 123.939 202.28 125.131 205.487 124.514C207.452 124.137 209.332 122.756 211.126 120.373C213.981 116.16 217.065 108.381 220.378 97.0362C220.947 88.9889 222.46 78.8831 224.918 66.7188L216.85 68.2699C216.333 68.3693 215.921 68.1803 215.615 67.7029C215.392 67.1021 215.334 66.5233 215.442 65.9663C215.633 65.286 215.987 64.8962 216.504 64.7967L225.813 63.007C227.966 54.1195 230.119 46.6263 232.272 40.5276C234.424 34.4289 236.667 30.19 238.998 27.8111C241.31 25.3287 243.034 23.9782 244.172 23.7594C245.413 23.5208 246.313 23.4552 246.87 23.5627C249.467 24.2432 251.114 26.3936 251.81 30.0139C252.486 33.5309 252.122 38.0523 250.717 43.5782C249.313 49.1041 247.89 54.258 246.45 59.0399L253.897 57.6082C254.414 57.5087 254.784 57.7594 255.007 58.3601C255.313 58.8376 255.371 59.4164 255.18 60.0967C255.073 60.6537 254.76 60.9819 254.243 61.0813L245.244 62.8113C241.404 73.5249 236.166 83.381 229.529 92.3797L229.003 108.892C228.951 110.296 229.055 111.671 229.313 113.016C229.552 114.257 230.163 115.48 231.145 116.686C232.128 117.891 233.395 118.345 234.946 118.047C236.705 117.709 238.551 116.71 240.484 115.051C244.21 110.949 247.73 103.629 251.043 93.0907C251.209 91.7288 251.442 90.3366 251.741 88.9141C253.003 83.2012 255.12 77.7529 258.092 72.5693C261.044 67.2822 264.804 63.127 269.371 60.1037C271.552 58.612 273.728 57.6573 275.9 57.2397C278.072 56.8221 280.209 57.055 282.309 57.9383C284.346 59.0484 285.534 60.4827 285.872 62.2411C287.065 68.4475 284.484 75.1111 278.13 82.232C276.193 84.428 273.294 86.6477 269.435 88.8913C265.556 91.0314 262.531 92.3103 260.358 92.7279C259.586 96.5232 259.618 100.593 260.453 104.938C261.01 107.834 262.078 110.042 263.657 111.562C265.32 112.958 267.341 113.428 269.72 112.971C275.259 111.906 279.905 107.837 283.657 100.765C283.58 100.426 283.507 100.076 283.437 99.7146C283.059 97.7492 283.322 95.768 284.225 93.7709C285.232 91.7539 286.449 90.5545 287.878 90.1727C288.326 88.6939 288.763 87.2352 289.19 85.797C289.549 84.4219 289.893 82.9951 290.221 81.5167C290.409 80.6863 290.668 80.0489 290.999 79.6045C292.982 72.7033 294.701 66.31 296.157 60.4249C298.604 50.8371 302.569 45.5163 308.051 44.4623C309.499 44.1839 310.965 44.2775 312.449 44.7431C314.017 45.0853 314.673 45.71 314.418 46.617C314.267 47.5042 313.573 47.7985 312.335 47.5001C311.098 47.2016 310.066 47.132 309.238 47.291C308.411 47.4501 307.717 47.7445 307.156 48.1741C303.957 50.5052 302.884 54.4119 303.938 59.8942C304.495 62.7905 305.366 65.0901 306.552 66.7929C307.737 68.4957 309.056 70.3338 310.508 72.3072C313.921 77.2287 315.956 81.3962 316.612 84.8097C317.268 88.2232 316.828 91.7937 315.292 95.5214C313.756 99.249 311.688 102.436 309.086 105.081C310.47 105.029 311.421 104.954 311.938 104.854C316.076 104.059 319.694 100.843 322.794 95.2056C324.141 92.6761 326.099 87.2211 328.668 78.8407C336.746 48.926 342.99 27.0613 347.399 13.2466C348.669 9.24844 349.888 6.38606 351.058 4.65952C352.331 2.91309 354.002 1.84102 356.071 1.44331C356.588 1.34388 357.704 1.29024 359.419 1.2824C361.113 1.17111 362.365 0.9842 363.172 0.72168C360.686 4.52486 356.81 14.4944 351.546 30.6304C346.365 46.6431 341.544 62.8547 337.083 79.2653C340.772 72.2278 344.201 66.6344 347.372 62.4851C350.647 58.316 354.788 54.1946 359.798 50.1211C364.787 45.9441 368.574 43.607 371.16 43.1099C371.781 42.9906 372.37 42.9846 372.927 43.0921C364.499 67.8809 360.951 83.7405 362.283 90.6709ZM158.192 48.1722C156.422 38.9662 149.429 32.1587 137.211 27.7499C131.216 25.5773 124.739 24.2481 117.781 23.7623C119.285 21.5425 120.891 19.5713 122.597 17.8487C124.408 16.1063 125.408 14.895 125.599 14.2147C125.874 13.4111 125.701 13.0689 125.08 13.1882C124.957 13.1047 124.688 13.1027 124.275 13.1822C123.964 13.2419 122.512 14.0573 119.918 15.6286C117.324 17.1999 114.444 19.7917 111.277 23.4039C102.994 23.28 94.1456 24.1229 84.7326 25.9324C75.423 27.7221 65.4968 30.4885 54.9539 34.2315C44.4944 37.8511 34.7292 42.5709 25.6581 48.3907C20.3229 51.8834 15.7197 55.5571 11.8485 59.4119C7.97725 63.2667 4.90564 67.9332 2.63364 73.4113C0.34175 78.7859 -0.227517 84.473 0.925838 90.4725C2.17862 96.9892 5.42666 101.889 10.67 105.171C15.9133 108.454 22.0519 109.419 29.0857 108.067C35.2921 106.874 40.5616 103.876 44.8944 99.0745C49.3107 94.1496 50.9243 88.3154 49.7352 81.5719C49.596 80.8478 49.3414 80.3605 48.9715 80.1098C48.6015 79.8592 48.2394 79.9288 47.8853 80.3186C47.6148 80.5852 47.4974 81.0904 47.5332 81.8344C46.6854 87.4677 44.3856 92.5221 40.6337 96.9975C36.9852 101.453 32.7819 104.138 28.0237 105.053C23.3689 105.948 19.1937 104.873 15.4979 101.83C12.0489 98.9531 9.94651 95.5495 9.19086 91.6188C7.95796 85.2055 9.36076 78.5538 13.3993 71.6635C16.4351 66.2531 20.5093 61.5011 25.6218 57.4077C30.8178 53.1909 36.0297 49.6147 41.2575 46.679C46.4654 43.6398 52.7156 40.7221 60.0082 37.9257C67.2808 35.0259 75.1582 32.7607 83.6402 31.1301C92.1222 29.4995 100.186 28.4855 107.833 28.0882C106.663 29.8147 105.231 32.1281 103.536 35.0282L101.28 38.358C96.6565 46.1115 92.3951 55.19 88.4956 65.5932C84.5763 75.893 81.4288 85.1863 79.0532 93.4731C73.0007 115.553 66.7377 131.237 60.2643 140.526C51.1609 153.432 40.8167 160.998 29.2314 163.225C21.4735 164.716 16.2301 162.828 13.5013 157.561C12.8688 156.502 12.4432 155.404 12.2244 154.267C11.6676 151.37 12.3919 148.442 14.3972 145.482C16.486 142.399 19.1855 140.54 22.4955 139.903C25.909 139.247 28.8331 139.114 31.2679 139.504C33.7026 139.894 35.0871 139.842 35.4213 139.349C35.7993 138.526 35.0494 137.973 33.1717 137.69C28.1152 137.053 23.4147 137.152 19.0703 137.987C12.3467 139.28 7.53067 142.405 4.62216 147.362C2.76008 150.508 2.05772 153.271 2.51508 155.65C2.95256 157.926 3.70236 159.874 4.76449 161.493C9.27953 168.24 18.2606 170.322 31.7077 167.737C45.7755 165.032 57.5997 157.074 67.1805 143.863C73.6539 134.573 79.6023 123.669 85.0256 111.149C86.9074 110.895 88.7792 110.589 90.6412 110.231C99.33 108.56 108.805 105.398 119.065 100.744C124.973 97.9994 130.744 94.2621 136.378 89.5322C142.115 84.7823 146.844 79.5292 150.564 73.7727C157.041 63.9465 159.584 55.413 158.192 48.1722ZM112.513 98.4641C104.218 102.74 96.2947 105.604 88.7437 107.056L86.5714 107.474C89.5597 100.142 94.0759 87.3672 100.12 69.1506C106.165 50.9339 111.307 37.2347 115.549 28.0529C134.693 28.8776 145.428 35.3411 147.755 47.4435C149.803 58.0978 145.171 69.7144 133.86 82.2933C128.007 88.6743 120.892 94.0646 112.513 98.4641ZM290.836 89.9337C290.967 89.4321 291.096 88.922 291.223 88.4033C291.529 87.1995 291.8 86.117 292.035 85.1557C293.637 79.7198 296.173 70.8238 299.642 58.4677C299.678 59.2117 299.884 60.5663 300.262 62.5317C300.64 64.497 301.728 68.2029 303.526 73.6495C305.324 79.096 306.531 83.4226 307.147 86.6292C308.659 94.4906 307.477 100.617 303.601 105.009C298.859 103.775 295.901 100.107 294.728 94.0043C294.156 91.0273 292.859 89.6705 290.836 89.9337ZM209.745 64.648C208.536 66.1676 207.052 67.0965 205.294 67.4345C203.535 67.7726 202.019 67.4204 200.746 66.378C199.473 65.3356 198.771 63.9153 198.64 62.117C198.612 60.2989 199.203 58.63 200.413 57.1103C201.622 55.5907 203.106 54.6618 204.865 54.3237C206.623 53.9857 208.139 54.3379 209.412 55.3803C210.788 56.4028 211.49 57.8232 211.518 59.6413C211.546 61.4594 210.955 63.1283 209.745 64.648ZM248.385 32.2814C249.3 37.0396 247.517 46.1779 243.036 59.6961L235.278 61.1875C238.374 47.7209 240.742 39.1138 242.381 35.3663C244.124 31.5989 245.564 29.6058 246.702 29.387C247.426 29.2478 247.987 30.2126 248.385 32.2814ZM234.383 64.8993L241.675 63.4974C238.345 72.3968 234.443 80.2797 229.971 87.1462C232.228 75.4499 233.698 68.0342 234.383 64.8993ZM281.653 62.8913C281.255 60.8226 280.229 59.9473 278.573 60.2654C275.677 60.8222 271.967 65.236 267.443 73.5068C264.761 78.5273 262.593 83.9855 260.937 89.8814C262.696 89.5434 265.111 88.4355 268.182 86.5579C271.357 84.6604 273.987 82.4387 276.072 79.8926C280.826 73.9373 282.687 68.2702 281.653 62.8913ZM291.702 105.044C291.459 104.34 291.278 103.678 291.159 103.057C290.741 100.885 291.285 98.6887 292.789 96.4688C294.133 101.788 296.947 105.269 301.232 106.913C300.484 107.485 299.489 107.891 298.248 108.13C295.248 108.706 293.066 107.678 291.702 105.044ZM229.364 183.752L223.116 186.401C218.587 200.787 215.427 218.664 213.636 240.031C213.023 247.443 211.534 255.881 209.171 265.346C206.787 274.707 203.498 283.544 199.304 291.859C183.791 322.193 160.001 340.443 127.935 346.607C113.04 349.471 100.579 348.541 90.554 343.818C83.6995 340.523 78.6035 335.496 75.266 328.737C74.0448 326.29 73.0465 323.05 72.2709 319.015C71.4954 314.981 71.6151 310.024 72.6299 304.144C73.7283 298.141 76.249 292.561 80.1919 287.406C84.1149 282.146 87.453 279.145 90.2061 278.401C91.2404 278.202 91.8909 278.238 92.1574 278.509C92.5473 278.863 92.0878 279.541 90.7788 280.544C87.8307 282.505 84.8487 286.242 81.8327 291.756C77.1218 300.17 75.6413 308.928 77.3912 318.031C78.7235 324.962 82.0909 330.482 87.4932 334.592C94.2721 339.724 103 342.444 113.678 342.751C118.429 342.911 121.993 342.762 124.372 342.304C126.751 341.847 129.172 341.328 131.635 340.747C134.221 340.25 137.483 339.087 141.422 337.257C149.59 333.434 157.137 328.336 164.064 321.963C170.991 315.59 176.71 309.074 181.222 302.415C185.714 295.652 189.683 288.399 193.129 280.657C198.95 267.418 202.846 254.763 204.816 242.692C208.378 222.164 212.924 203.967 218.455 188.102C202.664 194.677 190.305 200.968 181.377 206.975C172.282 213.229 165.511 219.572 161.062 226.004C155.568 234.247 152.673 242.902 152.378 251.969C152.235 254.571 152.362 256.906 152.759 258.975C153.595 263.319 155.46 266.607 158.356 268.839C161.253 271.072 164.045 271.929 166.735 271.412C169.528 270.875 172.356 269.688 175.221 267.85C178.189 265.992 180.584 263.387 182.406 260.033C184.901 255.156 185.592 249.821 184.478 244.028C183.921 241.132 183.16 239.401 182.193 238.836C181.926 238.565 181.94 238.08 182.235 237.38C182.971 235.629 183.953 235.441 185.183 236.813C187.025 239.141 188.244 241.856 188.84 244.959C189.417 247.959 189.071 251.458 187.801 255.456C185.557 262.752 181.363 268.278 175.221 272.033C172.149 273.911 168.7 275.217 164.873 275.953C161.149 276.669 156.786 275.738 151.786 273.16C146.785 270.581 143.698 266.241 142.525 260.138C142.167 258.276 141.986 256.219 141.982 253.967C142.768 226.25 168.828 202.791 220.162 183.591C220.715 181.446 221.903 178.697 223.725 175.344C225.651 171.97 227.392 169.866 228.947 169.03C230.586 168.072 231.975 167.483 233.113 167.264C236.526 166.608 238.563 167.718 239.223 170.594C239.82 173.698 239.036 176.315 236.872 178.448C234.874 180.333 232.372 182.101 229.364 183.752ZM225.008 182.015C231.763 179.215 234.747 176.603 233.96 174.181C233.514 172.979 232.671 172.498 231.429 172.736C230.292 172.955 228.151 176.048 225.008 182.015ZM266.31 251.143C267.185 255.695 266.96 260.94 265.635 266.88C264.31 272.819 262.014 278.731 258.747 284.615C255.584 290.479 251.181 294.918 245.54 297.934C243.384 298.992 240.806 299.809 237.806 300.386C234.909 300.943 231.524 300.628 227.649 299.442L219.978 339.049C219.063 342.657 218.032 345.108 216.887 346.401C215.741 347.693 214.547 348.459 213.306 348.698L211.134 349.115C210.823 349.175 209.863 349.199 208.251 349.187C206.537 349.195 205.275 349.33 204.468 349.592C206.326 346.983 210.13 335.525 215.88 315.22C221.546 295.038 224.384 281.621 224.392 274.969C223.573 276.843 222.656 277.931 221.641 278.233C221.02 278.352 220.911 277.784 221.313 276.526C221.695 275.166 222.282 272.64 223.074 268.948C224.081 264.142 224.226 259.877 223.51 256.153C222.774 252.326 221.623 250.241 220.055 249.899C226.063 247.671 229.594 246.51 230.648 246.415C231.682 246.216 232.383 246.51 232.749 247.298C233.218 248.066 233.552 248.967 233.751 250.001C234.964 256.311 234.868 263.623 233.463 271.938L235.612 266.376C238.182 259.661 240.126 255.265 241.443 253.188C242.863 251.092 244.377 248.924 245.985 246.684C248.428 243.211 251.046 241.206 253.838 240.669C254.666 240.51 255.462 240.465 256.225 240.532C261.656 240.883 265.017 244.42 266.31 251.143ZM258.564 251.023C258.246 249.368 257.596 247.938 256.613 246.733C255.714 245.404 254.54 244.878 253.092 245.157C249.472 245.853 245.877 250.03 242.308 257.688C238.842 265.326 234.221 278.389 228.443 296.876C230.046 297.962 232.037 298.277 234.416 297.82C236.795 297.362 239.809 294.906 243.458 290.45C249.275 283.325 253.685 275.023 256.689 265.542C258.615 259.38 259.24 254.54 258.564 251.023ZM295.629 286.535C295.112 286.634 294.161 286.71 292.776 286.761C295.378 284.116 297.447 280.929 298.983 277.202C300.519 273.474 300.959 269.903 300.303 266.49C299.646 263.076 297.612 258.909 294.199 253.987C292.747 252.014 291.428 250.176 290.242 248.473C289.057 246.77 288.186 244.471 287.629 241.574C286.575 236.092 287.648 232.185 290.846 229.854C291.407 229.425 292.102 229.13 292.929 228.971C293.757 228.812 294.789 228.882 296.026 229.18C297.263 229.479 297.958 229.184 298.109 228.297C298.364 227.39 297.707 226.765 296.14 226.423C294.656 225.958 293.19 225.864 291.742 226.142C286.259 227.196 282.295 232.517 279.847 242.105C277.675 250.889 274.915 260.805 271.568 271.853C270.14 272.235 268.923 273.434 267.916 275.451C267.013 277.448 266.75 279.429 267.128 281.395C267.486 283.257 267.949 284.83 268.518 286.115C271.183 291.609 276.188 293.651 283.532 292.239C285.394 291.881 287.415 290.956 289.595 289.464C293.415 289.803 297.118 288.983 300.707 287.006C302.947 285.825 304.777 284.186 306.198 282.089L308.8 278.05C309.655 276.92 310.441 275.428 311.157 273.574C311.214 273.426 311.27 273.28 311.326 273.136L311.348 273.078L311.422 272.882C311.48 273.527 311.568 274.152 311.684 274.76C312.221 277.553 313.536 279.928 315.628 281.885C317.721 283.843 320.629 284.464 324.353 283.748C328.18 283.012 331.747 279.806 335.053 274.129C336.267 272.072 337.496 269.261 338.742 265.697C339.144 264.58 339.501 263.561 339.813 262.639C339.916 264.561 340.113 266.278 340.404 267.791C341.1 271.411 342.711 274.212 345.237 276.193C347.763 278.175 350.63 278.857 353.836 278.241C360.146 277.028 365.229 271.385 369.085 261.312C369.282 260.831 369.487 260.305 369.698 259.734C369.796 260.524 369.92 261.309 370.07 262.088C371.084 267.363 373.351 270.789 376.872 272.364C378.416 273.14 380.015 273.369 381.67 273.051C387.669 271.897 393.524 263.854 399.234 248.919C398.915 252.842 399.005 256.096 399.502 258.682C399.999 261.268 400.862 263.247 402.091 264.62C404.51 267.158 407.219 268.139 410.219 267.562C416.736 266.31 422.903 255.149 428.721 234.08C428.892 233.296 428.928 232.645 428.828 232.128C428.649 231.197 428.176 230.966 427.408 231.436C426.911 231.639 426.545 232.245 426.31 233.256C423.803 242.533 420.936 250.217 417.709 256.308C415.509 260.485 413.426 262.763 411.461 263.141C409.909 263.439 408.944 262.605 408.567 260.64C408.169 258.571 407.972 255.874 407.976 252.548C408.064 249.099 409.188 243.788 411.349 236.615C413.49 229.338 415.312 224.59 416.816 222.37C416.028 222.736 414.725 222.933 412.907 222.961C411.193 222.969 410.128 223.012 409.715 223.092C407.646 223.49 406.078 224.542 405.012 226.249C403.926 227.852 402.768 230.756 401.538 234.961C395.164 255.923 388.873 267 382.667 268.193C380.081 268.69 378.4 266.922 377.624 262.888C376.849 258.854 377.832 253.087 380.574 245.588C382.706 239.386 385.237 233.858 388.165 229.005C393.33 220.718 398.136 216.147 402.584 215.292C406.411 214.556 409.252 215.941 411.105 219.446C412.49 219.394 413.289 218.812 413.504 217.698C413.719 216.584 413.2 215.557 411.947 214.618C408.001 211.944 403.648 211.065 398.89 211.98C397.132 212.318 395.32 212.934 393.454 213.829C386.551 216.98 381.174 221.929 377.322 228.676C372.715 236.919 370.121 244.702 369.542 252.023C366.555 260.761 363.404 266.954 360.091 270.603C358.157 272.262 356.311 273.26 354.553 273.598C353.001 273.896 351.734 273.443 350.751 272.237C349.769 271.032 349.158 269.808 348.92 268.567C348.661 267.222 348.558 265.848 348.61 264.443L349.136 247.931C355.772 238.932 361.01 229.076 364.85 218.363L373.849 216.633C374.367 216.533 374.679 216.205 374.786 215.648C374.977 214.968 374.92 214.389 374.613 213.912C374.391 213.311 374.021 213.06 373.504 213.16L366.056 214.591C367.496 209.809 368.919 204.655 370.324 199.13C371.728 193.604 372.093 189.082 371.417 185.565C370.721 181.945 369.074 179.795 366.476 179.114C365.919 179.007 365.02 179.072 363.779 179.311C362.641 179.53 360.916 180.88 358.604 183.363C356.273 185.741 354.031 189.98 351.878 196.079C349.725 202.178 347.573 209.671 345.42 218.558L336.11 220.348C335.593 220.448 335.239 220.837 335.048 221.518C334.941 222.075 334.998 222.654 335.221 223.254C335.527 223.732 335.939 223.921 336.456 223.821L344.524 222.27C342.066 234.434 340.553 244.54 339.985 252.587C336.672 263.932 333.588 271.711 330.733 275.925C328.938 278.308 327.059 279.688 325.093 280.066C321.887 280.682 319.995 279.491 319.418 276.491C318.901 273.801 319.154 270.374 320.177 266.209L327.012 234.808C327.688 232.747 327.74 231.343 327.167 230.595C326.574 229.743 325.088 229.546 322.709 230.004L314.205 231.799C315.765 233.216 316.644 234.441 316.843 235.476C317.042 236.51 317.097 237.357 317.01 238.018L313.557 256.55C310.392 267.198 308.034 273.977 306.484 276.886C303.385 282.523 299.766 285.739 295.629 286.535ZM290.838 268.309C292.349 276.171 291.167 282.297 287.292 286.689C282.55 285.456 279.592 281.787 278.419 275.684C277.822 272.581 276.438 271.238 274.266 271.656C275.471 267.885 278.494 257.382 283.332 240.148C283.368 240.892 283.575 242.246 283.953 244.212C284.331 246.177 285.419 249.883 287.216 255.33C289.014 260.776 290.221 265.103 290.838 268.309ZM275.393 286.724C275.15 286.02 274.969 285.358 274.85 284.737C274.432 282.565 274.975 280.369 276.479 278.149C277.824 283.468 280.638 286.949 284.923 288.593C284.175 289.166 283.18 289.571 281.939 289.81C278.939 290.387 276.757 289.358 275.393 286.724ZM329.352 220.199C328.142 221.719 326.658 222.648 324.9 222.986C323.141 223.324 321.626 222.972 320.353 221.929C319.08 220.887 318.377 219.467 318.246 217.668C318.219 215.85 318.809 214.181 320.019 212.662C321.229 211.142 322.713 210.213 324.471 209.875C326.229 209.537 327.745 209.889 329.018 210.932C330.395 211.954 331.097 213.375 331.124 215.193C331.152 217.011 330.561 218.68 329.352 220.199ZM367.991 187.833C368.906 192.591 367.123 201.729 362.642 215.248L354.884 216.739C357.98 203.272 360.348 194.665 361.988 190.918C363.73 187.15 365.171 185.157 366.308 184.938C367.033 184.799 367.593 185.764 367.991 187.833ZM353.989 220.451L361.282 219.049C357.951 227.948 354.05 235.831 349.578 242.698C351.834 231.001 353.305 223.586 353.989 220.451ZM300.007 161.6L294.915 161.752C294.459 160.738 294.231 159.598 294.231 158.332C294.231 157.065 294.586 155.621 295.295 154C296.613 151.112 298.411 148.68 300.691 146.704C302.971 144.728 305.403 143.233 307.987 142.22C310.571 141.156 312.826 140.624 314.751 140.624C316.677 140.624 318.121 140.978 319.083 141.688C319.995 142.296 320.451 143.157 320.451 144.272C320.451 144.576 320.426 144.88 320.375 145.184C320.274 144.829 319.945 144.525 319.387 144.272C318.83 143.968 318.247 143.816 317.639 143.816C316.727 143.816 315.917 144.145 315.207 144.804C314.549 145.462 314.219 146.298 314.219 147.312C314.219 148.325 314.549 149.186 315.207 149.896C315.917 150.554 316.829 150.884 317.943 150.884C319.109 150.884 320.147 150.326 321.059 149.212C321.971 148.046 322.427 146.729 322.427 145.26C322.427 142.929 321.49 141.232 319.615 140.168C317.791 139.104 315.562 138.572 312.927 138.572C309.735 138.572 306.442 139.18 303.047 140.396C299.703 141.561 296.739 143.461 294.155 146.096C291.571 148.73 290.254 151.542 290.203 154.532C290.203 157.521 290.913 160.004 292.331 161.98C288.481 162.385 285.01 163.348 281.919 164.868C276.549 167.502 272.977 171.226 271.203 176.04C270.545 177.864 270.215 179.84 270.215 181.968C270.215 184.096 271.026 186.3 272.647 188.58C275.89 193.14 281.438 195.42 289.291 195.42C292.534 195.42 295.625 194.862 298.563 193.748C301.502 192.633 303.909 191.189 305.783 189.416C309.735 185.818 311.711 182.322 311.711 178.928C311.711 176.496 310.749 174.494 308.823 172.924H309.203C312.446 172.924 315.587 172.341 318.627 171.176C321.667 170.01 323.821 168.465 325.087 166.54C325.746 165.628 326.075 164.64 326.075 163.576C326.075 162.461 325.721 161.296 325.011 160.08C324.859 159.826 324.657 159.7 324.403 159.7C324.201 159.7 324.074 159.801 324.023 160.004C323.973 160.206 324.099 160.561 324.403 161.068C324.707 161.574 324.859 162.182 324.859 162.892C324.859 163.55 324.657 164.184 324.251 164.792C323.39 165.957 322.022 166.97 320.147 167.832C316.297 169.605 313.054 170.492 310.419 170.492H296.967C293.218 170.492 290.127 171.1 287.695 172.316C285.263 173.532 283.743 175.026 283.135 176.8C282.882 177.408 282.755 178.193 282.755 179.156C282.755 180.118 283.211 181.309 284.123 182.728C285.441 184.906 287.695 186.857 290.887 188.58C291.242 188.782 291.445 188.656 291.495 188.2C291.597 187.693 291.394 187.288 290.887 186.984C287.493 185.21 285.795 183.234 285.795 181.056C285.795 178.877 286.758 177.129 288.683 175.812C290.305 174.697 291.926 174.038 293.547 173.836C295.219 173.582 296.562 173.456 297.575 173.456C298.639 173.456 299.906 173.557 301.375 173.76C302.895 173.912 304.314 174.52 305.631 175.584C306.999 176.597 307.683 177.889 307.683 179.46C307.683 182.753 305.859 186.072 302.211 189.416C298.563 192.76 294.257 194.432 289.291 194.432C283.718 194.432 280.095 192 278.423 187.136C277.866 185.413 277.587 183.665 277.587 181.892C277.587 178.7 278.525 175.432 280.399 172.088C283.338 166.92 287.645 163.905 293.319 163.044C295.549 165.273 298.107 166.388 300.995 166.388C302.667 166.388 303.807 166.008 304.415 165.248C304.669 164.944 304.795 164.589 304.795 164.184C304.795 163.778 304.618 163.373 304.263 162.968C303.554 162.056 302.135 161.6 300.007 161.6ZM297.879 162.74C301.629 162.74 303.503 163.196 303.503 164.108C303.503 164.766 302.465 165.096 300.387 165.096C298.361 165.096 296.739 164.336 295.523 162.816C296.334 162.765 297.119 162.74 297.879 162.74Z" fill="black"/>
</svg>
