<svg xmlns="http://www.w3.org/2000/svg" viewBox="0 0 196.4439 23.1617"><defs><style>.a{fill:#434040;}</style></defs><title>Asset 2</title><path class="a" d="M.4973,5.2716s.19.3276.6094.9448A25.5112,25.5112,0,0,0,3.1516,8.7935a18.9916,18.9916,0,0,0,4.0059,3.4141,10.3225,10.3225,0,0,0,6.6718,1.7148c.3184-.0444.67-.06.9727-.1269q.51-.1245,1.0313-.2529a7.7174,7.7174,0,0,0,.9921-.33,5.0633,5.0633,0,0,0,.9522-.44,2.9079,2.9079,0,0,0,1.4131-1.41,2.0122,2.0122,0,0,0-.3155-1.9063,3.7786,3.7786,0,0,0-1.7558-1.3593,2.0283,2.0283,0,0,0-1.042-.107,1.2778,1.2778,0,0,0-.627.6744,5.4271,5.4271,0,0,0,.6055,4.85,8.8956,8.8956,0,0,0,4.2774,3.4482,18.167,18.167,0,0,0,5.8994,1.2495,13.2611,13.2611,0,0,0,6.2109-.8857A10.1776,10.1776,0,0,0,37.2678,13.02a13.2205,13.2205,0,0,0,1.78-6.6074,9.7186,9.7186,0,0,0-.5713-3.458C38.0627,1.899,37.3.8512,36.22.793a2.9245,2.9245,0,0,0-2.67,1.7085,8.44,8.44,0,0,0-.9053,3.5474,13.7113,13.7113,0,0,0,1.6553,7.4A7.1831,7.1831,0,0,0,36.9163,16.19a5.4442,5.4442,0,0,0,3.707.5718A51.54,51.54,0,0,0,48.6106,14.63c1.332-.4434,2.6641-.93,4.0879-1.27a7.0387,7.0387,0,0,1,4.53.1685,6.5175,6.5175,0,0,1,1.05.624,4.7135,4.7135,0,0,1,.8554.8,3.1341,3.1341,0,0,1,.7686,2.4776,3.54,3.54,0,0,1-1.3262,2.2128,4.0914,4.0914,0,0,1-2.3906.9131,3.279,3.279,0,0,1-1.335-.2187l-.1631-.0576a1.37,1.37,0,0,1-.1826-.0953,1.5482,1.5482,0,0,1-.3-.2041,1.8541,1.8541,0,0,1-.5293-.6694,3.4312,3.4312,0,0,1,.08-2.6968,8.2169,8.2169,0,0,1,3.085-3.65,9.2571,9.2571,0,0,1,4.5049-1.5566,10.1977,10.1977,0,0,1,2.4121.1167l1.1035.2075,1.1484.2935a16.1314,16.1314,0,0,1,4.291,1.9272,9.7044,9.7044,0,0,1,1.8516,1.5747,3.5656,3.5656,0,0,1,1.0684,2.4873c-.0313,1.2325-1.4151,1.8394-2.1485,1.8628a2.4643,2.4643,0,0,1-2.4189-1.5215A2.7,2.7,0,0,1,68.969,15.58a3.7562,3.7562,0,0,1,2.36-1.2227l.626-.0889c.2061-.0112.41-.0044.6153-.0073l.6211.0044.5742.0435c.7588.0507,1.5459.1386,2.3105.2143,1.5342.1631,3.0576.33,4.586.4614a39.5651,39.5651,0,0,0,9.123-.0683A11.5729,11.5729,0,0,0,97.53,10.939c.251-.2915.4082-.5839.6211-.8735a5.2747,5.2747,0,0,0,.4268-.9351,1.5215,1.5215,0,0,0-.3037-1.6591A2.8465,2.8465,0,0,0,96.45,6.8038a4.0944,4.0944,0,0,0-2.0146.3945,2.2891,2.2891,0,0,0-.7539.58,4.0964,4.0964,0,0,0-.3272.4639l-.2275.4448a7.9889,7.9889,0,0,0-.585,2.1128,8.3261,8.3261,0,0,0,.4971,4.35c1.1172,2.7754,4.1182,4.314,7.1055,4.5337a15.0835,15.0835,0,0,0,4.5107-.1319,13.8636,13.8636,0,0,0,4.209-1.5434,10.3807,10.3807,0,0,0,3.2979-2.89,5.93,5.93,0,0,0,.9209-1.89,3.3693,3.3693,0,0,0-.1094-1.939,4.1021,4.1021,0,0,0-.4854-.8217l-.1855-.21-.1475-.1279a.947.947,0,0,0-.2783-.1538.1045.1045,0,0,0-.0684.0087.5745.5745,0,0,0-.1045.1924,1.6175,1.6175,0,0,0-.0048.814,2.8537,2.8537,0,0,0,1.0019,1.5322,4.1929,4.1929,0,0,0,1.8.7915,9.9253,9.9253,0,0,0,4.2285-.2617c1.3946-.3589,2.8467-.877,4.2725-1.32,1.43-.4556,2.8643-.9068,4.31-1.3238.7363-.186,1.4345-.4321,2.1992-.5668l1.13-.2281L131.844,9.54a8.6781,8.6781,0,0,1,1.2373.1851,10.6906,10.6906,0,0,1,1.1123.4687l.501.2715.25.1358a1.47,1.47,0,0,1,.1719.11l.1113.0816a2.5219,2.5219,0,0,1,.8848,1.0205,3.0864,3.0864,0,0,1-.0772,2.5732,4.8412,4.8412,0,0,1-1.5361,1.89,4.0579,4.0579,0,0,1-2.3164.8261,3.5773,3.5773,0,0,1-1.2832-.2158,1.7694,1.7694,0,0,1-.2754-.1338,1.3332,1.3332,0,0,1-.3506-.2871,1.2262,1.2262,0,0,1-.3106-.8325,2.2382,2.2382,0,0,1,.5118-1.2759,5.7029,5.7029,0,0,1,.8056-.8637,10.7763,10.7763,0,0,1,1.8418-1.3,13.5125,13.5125,0,0,1,8.4961-1.7475,8.7447,8.7447,0,0,1,2.12.5918,8.9263,8.9263,0,0,1,1.9424,1.0034,4.9826,4.9826,0,0,1,1.5547,1.6528,3.3867,3.3867,0,0,1,.3086,2.314,3.6956,3.6956,0,0,1-1.1963,1.9624,2.9386,2.9386,0,0,1-1.0332.59,1.6869,1.6869,0,0,1-.627.1084l-.164.0059a.9206.9206,0,0,1-.1953-.0313l-.2481-.0556a1.4175,1.4175,0,0,1-.9541-1.1133,1.848,1.848,0,0,1,.3418-1.2666,3.83,3.83,0,0,1,1.8389-1.2891c2.7412-.9458,5.5293-.4013,8.0586.0127a34.1142,34.1142,0,0,0,7.499.6031,6.4492,6.4492,0,0,0,3.2432-1.0035,4.7826,4.7826,0,0,0,1.8037-2.6294l.125-.4375c.0312-.1367.0234-.2373.041-.3564a2.9338,2.9338,0,0,0-.01-.7041,2.0194,2.0194,0,0,0-.6806-1.1362,2.8418,2.8418,0,0,0-2.6934-.4278,1.837,1.837,0,0,0-.541.32,1.28,1.28,0,0,1-.1631.17c-.0312.0586-.081.1347-.0977.1787a.194.194,0,0,1-.0185.0757,3.5292,3.5292,0,0,0,.001,1.4087,9.2764,9.2764,0,0,0,1.1152,2.9433,8.9783,8.9783,0,0,0,4.4893,3.9868,8.67,8.67,0,0,0,5.74-.0376,5.5028,5.5028,0,0,0,3.918-3.2749,4.0688,4.0688,0,0,0-.0069-2.4326,2.8525,2.8525,0,0,0-1.2861-1.7554.9976.9976,0,0,1-.1855-.0576c.0986-.0005-.0206.0015-.02.002l-.083.0024c-.0791-.0029-.0322.02-.0547.0181a.6983.6983,0,0,0-.2851.2065,2.0373,2.0373,0,0,0-.4336.9258A3.6471,3.6471,0,0,0,175,13.6866a5.5013,5.5013,0,0,0,3.1368,2.84,13.2114,13.2114,0,0,0,4.0439.8672q.5.0228.9854.0445.4863-.01.96-.0186.4819-.0087.9512-.0166.4512-.0483.89-.0957l.86-.0952q.42-.09.8262-.1763a9.74,9.74,0,0,0,1.5439-.4223,11.2592,11.2592,0,0,0,4.4268-2.6685,10.0206,10.0206,0,0,0,1.8838-2.61,5.9036,5.9036,0,0,0,.4111-1.0079.2664.2664,0,0,1,.5176.1265l-.002.0054a6.5455,6.5455,0,0,1-.4238,1.1162,10.616,10.616,0,0,1-1.9385,2.81,11.94,11.94,0,0,1-4.6289,2.9292,10.3892,10.3892,0,0,1-1.6162.4794q-.4248.1-.8643.2027c-.3007.04-.6054.0805-.916.1221-.31.039-.625.0786-.9453.1191-.3125.0117-.6289.0239-.9512.0366q-.4922.0162-.999.0332-.5068-.0183-1.0273-.0366a14.0874,14.0874,0,0,1-4.336-.8921,6.4321,6.4321,0,0,1-3.6806-3.32,4.6212,4.6212,0,0,1-.293-2.75,2.99,2.99,0,0,1,.6553-1.3858,1.6375,1.6375,0,0,1,.7851-.5151,1.3356,1.3356,0,0,1,.2657-.0493l.083-.0034a.91.91,0,0,1,.1455.0009c.1513.0323.3037.0713.4541.1163a2.8617,2.8617,0,0,1,1.2392,1.0288,3.18,3.18,0,0,1,.3955.6552,3.62,3.62,0,0,1,.2862.7051,5.0786,5.0786,0,0,1-1.7774,5.6524,8.81,8.81,0,0,1-1.3349.8681c-.4912.1963-1.0059.4473-1.4942.5913a9.8281,9.8281,0,0,1-6.4511.0655,10.1965,10.1965,0,0,1-5.1592-4.47,10.5309,10.5309,0,0,1-1.3-3.3525,4.6537,4.6537,0,0,1,.0185-2.0088c.0371-.1123.08-.2241.128-.3325.0419-.0869.0732-.1318.1113-.2a3.4471,3.4471,0,0,1,.415-.4775,3.1063,3.1063,0,0,1,.9483-.5665,4.1,4.1,0,0,1,3.98.6568,3.3039,3.3039,0,0,1,1.1084,1.8891,4.1623,4.1623,0,0,1,.0156,1.0967c-.0254.1792-.043.3843-.0821.541l-.13.4356a7.3107,7.3107,0,0,1-.875,1.8169,5.4838,5.4838,0,0,1-1.4668,1.4458,7.5917,7.5917,0,0,1-3.8321,1.1372,35.0144,35.0144,0,0,1-7.7548-.7295,31.9917,31.9917,0,0,0-3.8252-.561,9.8206,9.8206,0,0,0-3.7481.3881A2.9331,2.9331,0,0,0,144.2,16.71a.982.982,0,0,0-.1924.6337.5858.5858,0,0,0,.2734.3736c1.0049.3076,2.1485-.8115,2.3789-1.9116a2.4629,2.4629,0,0,0-.23-1.6817,4.0982,4.0982,0,0,0-1.2764-1.3291,7.9324,7.9324,0,0,0-1.7617-.897,7.7886,7.7886,0,0,0-1.916-.5288,12.47,12.47,0,0,0-7.8672,1.6695,9.8415,9.8415,0,0,0-1.6631,1.1914,4.7176,4.7176,0,0,0-.6621.7168,1.3249,1.3249,0,0,0-.31.6919c.0147.0727.0068.1132.0615.1567.01.0337.0489.03.0635.0581.0088.0244.1455.0684.2119.1011a2.7925,2.7925,0,0,0,.8526.1211,3.0227,3.0227,0,0,0,1.7138-.6377,3.8,3.8,0,0,0,1.1875-1.48,2.0314,2.0314,0,0,0,.0752-1.68.9129.9129,0,0,0-.1943-.2993c-.0274-.0864-.2139-.2026-.3584-.3076l-.1123-.0806c-.085-.0591-.0088-.0117-.0606-.0381l-.2373-.126-.4736-.2529c-.3174-.1753-.6211-.251-.93-.3872a8.8032,8.8032,0,0,0-.9531-.1323l-1.0156.0727-1.0528.2227c-.7.1274-1.4121.3833-2.1191.5693-1.417.4234-2.835.8843-4.26,1.3535-1.4375.46-2.8193.9791-4.3506,1.3711a11.0921,11.0921,0,0,1-4.7636.2754,5.4144,5.4144,0,0,1-2.3272-1.0371,3.8645,3.8645,0,0,1-1.4062-2.2456,2.7609,2.7609,0,0,1,.0742-1.4468,1.5926,1.5926,0,0,1,.53-.74,1.2629,1.2629,0,0,1,1.0244-.1816,2.0077,2.0077,0,0,1,.72.3916l.2734.2607.19.2251a3.4928,3.4928,0,0,1,.3623.5635,2.39,2.39,0,0,1,.2891.5937,4.421,4.421,0,0,1,.0908,2.5826,6.92,6.92,0,0,1-1.1309,2.2031,11.2842,11.2842,0,0,1-3.68,3.0454,15.6107,15.6107,0,0,1-9.209,1.7222,5.9653,5.9653,0,0,1-1.18-.1739l-1.1729-.248a10.9789,10.9789,0,0,1-2.2217-.96,7.52,7.52,0,0,1-3.2207-3.5962,9.2958,9.2958,0,0,1-.5957-4.7973A8.8448,8.8448,0,0,1,92.3,8.3053l.3046-.5938a4.762,4.762,0,0,1,.3389-.4912,3.1836,3.1836,0,0,1,1.0557-.8565,5.0351,5.0351,0,0,1,2.5009-.53,3.7887,3.7887,0,0,1,2.4668.915,2.5494,2.5494,0,0,1,.6016,2.6655,6.2635,6.2635,0,0,1-.5185,1.1866c-.2374.3432-.4659.7334-.7188,1.0327l-.7617.8823-.9444.8384a6.6666,6.6666,0,0,1-1.0048.7021,5.8884,5.8884,0,0,1-1.0674.59,15.729,15.729,0,0,1-4.5987,1.3623,40.629,40.629,0,0,1-9.3867.1108c-1.5459-.1274-3.084-.29-4.6084-.4468a20.05,20.05,0,0,0-4.4248-.1611,2.6282,2.6282,0,0,0-1.6416.8052,1.5046,1.5046,0,0,0-.1562,1.5459,1.2867,1.2867,0,0,0,1.17.8105c.0557.0474.3037-.0576.4678-.1l.1367-.041c-.12.0366.0137-.0215.0078-.0269l.168-.1c.1211-.0625.1386-.1616.23-.2246-.003-.103.0966-.1528.0644-.2758a2.4841,2.4841,0,0,0-.7793-1.5289,8.4578,8.4578,0,0,0-1.6133-1.3305,14.9958,14.9958,0,0,0-3.9443-1.7075l-1.0312-.2608-1.1055-.2021a8.8742,8.8742,0,0,0-2.0537-.0865A7.8557,7.8557,0,0,0,57.6292,14.13a7.1306,7.1306,0,0,0-2.5645,3.0054,2.17,2.17,0,0,0-.1562,1.5762c.0341.2627.7089.5391,1.2412.5107a2.6993,2.6993,0,0,0,2.5293-1.9839,1.9248,1.9248,0,0,0-.4385-1.5273,2.4513,2.4513,0,0,0-.2862-.3359l-.4091-.3516a5.918,5.918,0,0,0-.7823-.4917,6.0107,6.0107,0,0,0-3.8564-.2163c-1.3467.2817-2.69.7134-4.0293,1.1309a54.6048,54.6048,0,0,1-8.1211,2.0488,6.206,6.206,0,0,1-4.209-.6485,7.9249,7.9249,0,0,1-2.9053-3.0166A14.4559,14.4559,0,0,1,31.8694,6.003,9.2076,9.2076,0,0,1,32.8645,2.12,4.2462,4.2462,0,0,1,34.2434.567,3.3479,3.3479,0,0,1,36.2825.004a2.8467,2.8467,0,0,1,1.8926.9487A5.3461,5.3461,0,0,1,39.221,2.6622a10.5489,10.5489,0,0,1,.64,3.75,14.0378,14.0378,0,0,1-1.8662,7.0352,11.0418,11.0418,0,0,1-5.2051,4.6777,11.4779,11.4779,0,0,1-3.3086.8945l-.8476.0952-.81.023-.4033.0112c-.1729.0044-.2823-.0073-.4268-.01l-.8125-.0308a18.5609,18.5609,0,0,1-6.2021-1.3062,9.7791,9.7791,0,0,1-4.67-3.8374,6.2284,6.2284,0,0,1-.6074-5.6723,1.9861,1.9861,0,0,1,1.2-1.1109,2.8217,2.8217,0,0,1,1.4942.1451,4.5718,4.5718,0,0,1,2.1425,1.6787,2.8091,2.8091,0,0,1,.3838,2.6455,3.6531,3.6531,0,0,1-1.7636,1.7929,5.8037,5.8037,0,0,1-1.07.4869,8.8648,8.8648,0,0,1-1.0742.3476l-1.0332.2461c-.3789.0811-.7217.0908-1.0771.1377a10.9166,10.9166,0,0,1-7.11-1.876,19.603,19.603,0,0,1-4.09-3.5923A26.0722,26.0722,0,0,1,.6506,6.5245C.2327,5.8883.0364,5.54.0364,5.54a.2668.2668,0,0,1,.0957-.3647A.2715.2715,0,0,1,.4973,5.2716Z"/><path class="a" d="M90.9934,18.4259a.62.62,0,0,0,0,1.24A.62.62,0,0,0,90.9934,18.4259Z"/><path class="a" d="M93.3538,20.2091a.7518.7518,0,0,0,0,1.5029A.7518.7518,0,0,0,93.3538,20.2091Z"/><path class="a" d="M97.2932,21.7c-.708-.5406-1.5556.6069-.9424,1.22C97.135,23.7032,98.2063,22.3922,97.2932,21.7Z"/><path class="a" d="M126.9749,6.9942a.5036.5036,0,0,0-.9844.1328.8346.8346,0,0,0,.9648.9234.1545.1545,0,0,0,.1455-.1909A3.3628,3.3628,0,0,0,126.9749,6.9942Z"/><path class="a" d="M129.093,5.8194c-1.0039.0195-.6631,1.646-.2588,2.1035a.5384.5384,0,0,0,.7559,0C130.0823,7.3585,130.1585,5.7974,129.093,5.8194Z"/><path class="a" d="M131.8381,6.0137c-.5351.438-.7324,1.5093.0967,1.7657l.0664.021a.8754.8754,0,0,0,.8526-.2246,1.1131,1.1131,0,0,0,.3808-.9825A.8279.8279,0,0,0,131.8381,6.0137Z"/><path class="a" d="M56.9778,9.1212a.6975.6975,0,0,0-1.1826.4887.8912.8912,0,0,0,.6621.9214c.28.063.7627.05.832-.3276A1.15,1.15,0,0,0,56.9778,9.1212Z"/><path class="a" d="M58.2131,7.8287c-1.1084.6211.0225,2.9321,1.0323,2.1416C60.1233,9.2838,59.4231,7.149,58.2131,7.8287Z"/><path class="a" d="M63.5549,7.5328a.9348.9348,0,0,0-1.55-.4077,4.47,4.47,0,0,0-.6523,1.2026A1.0351,1.0351,0,0,0,63.14,9.3707,2.2906,2.2906,0,0,0,63.5549,7.5328Z"/></svg>