<?xml version="1.0" encoding="utf-8"?><svg version="1.1" id="Layer_1" xmlns="http://www.w3.org/2000/svg" xmlns:xlink="http://www.w3.org/1999/xlink" x="0px" y="0px" viewBox="0 0 111.58 122.88" style="enable-background:new 0 0 111.58 122.88" xml:space="preserve"><style type="text/css"><![CDATA[
	.st0{fill:#26A000;}
	.st1{fill:#FFFFFF;}
	.st2{fill-rule:evenodd;clip-rule:evenodd;fill:#2AB200;}
]]></style><g><path class="st2" d="M105.55,0H6.03C2.71,0,0,2.71,0,6.03v110.82c0,3.32,2.71,6.03,6.03,6.03h99.52c3.32,0,6.03-2.71,6.03-6.03 l0-110.82C111.58,2.71,108.87,0,105.55,0L105.55,0L105.55,0z"/><path class="st1" d="M23.02,101.02l3.68-0.26c0.08,0.67,0.24,1.19,0.49,1.54c0.4,0.57,0.97,0.86,1.71,0.86 c0.55,0,0.98-0.14,1.28-0.44c0.3-0.29,0.45-0.63,0.45-1.02c0-0.37-0.14-0.7-0.42-0.99s-0.94-0.56-1.98-0.82 c-1.7-0.43-2.91-1-3.64-1.72c-0.73-0.71-1.1-1.62-1.1-2.73c0-0.72,0.19-1.41,0.56-2.06c0.37-0.65,0.94-1.16,1.69-1.53 s1.78-0.55,3.09-0.55c1.6,0,2.83,0.34,3.67,1.01c0.84,0.67,1.34,1.74,1.5,3.21l-3.65,0.24c-0.1-0.64-0.3-1.11-0.61-1.4 c-0.31-0.29-0.74-0.44-1.29-0.44c-0.45,0-0.79,0.11-1.02,0.32c-0.23,0.21-0.34,0.48-0.34,0.79c0,0.22,0.09,0.43,0.28,0.61 c0.18,0.19,0.61,0.36,1.29,0.52c1.69,0.41,2.91,0.83,3.64,1.25c0.73,0.42,1.27,0.94,1.6,1.57c0.33,0.62,0.5,1.32,0.5,2.1 c0,0.91-0.22,1.74-0.67,2.51c-0.45,0.76-1.07,1.35-1.87,1.74c-0.8,0.4-1.8,0.59-3.02,0.59c-2.13,0-3.61-0.46-4.43-1.39 C23.59,103.63,23.12,102.45,23.02,101.02L23.02,101.02z M63.87,38.99c-0.44-0.22-2.6-1.28-3-1.43c-0.4-0.15-0.69-0.22-0.99,0.22 c-0.29,0.44-1.14,1.43-1.39,1.72c-0.26,0.29-0.51,0.33-0.95,0.11c-0.44-0.22-1.86-0.69-3.53-2.18c-1.3-1.16-2.19-2.6-2.45-3.04 c-0.26-0.44-0.03-0.68,0.2-0.89c0.2-0.2,0.44-0.51,0.66-0.77c0.22-0.26,0.29-0.44,0.44-0.73c0.15-0.29,0.07-0.55-0.04-0.77 c-0.11-0.22-0.99-2.38-1.35-3.26c-0.35-0.86-0.72-0.74-0.99-0.76c-0.26-0.01-0.55-0.01-0.84-0.01c-0.29,0-0.77,0.11-1.17,0.55 c-0.4,0.44-1.54,1.5-1.54,3.67c0,2.16,1.57,4.25,1.79,4.55c0.22,0.29,3.1,4.73,7.5,6.63c1.05,0.45,1.87,0.72,2.5,0.93 c1.05,0.33,2.01,0.28,2.77,0.17c0.84-0.12,2.6-1.06,2.97-2.09c0.37-1.03,0.37-1.91,0.26-2.09C64.61,39.32,64.32,39.22,63.87,38.99 L63.87,38.99L63.87,38.99L63.87,38.99L63.87,38.99z M68.3,22.89c-3.32-3.33-7.74-5.16-12.44-5.16c-9.69,0-17.57,7.88-17.57,17.58 c0,3.1,0.81,6.13,2.35,8.79l-2.5,9.11l9.32-2.45c2.57,1.4,5.46,2.14,8.4,2.14h0.01c9.69,0,17.58-7.88,17.58-17.58 C73.44,30.63,71.61,26.22,68.3,22.89L68.3,22.89L68.3,22.89L68.3,22.89z M55.86,49.94c-2.63,0-5.2-0.71-7.44-2.04l-0.54-0.32 l-5.53,1.45l1.48-5.39l-0.35-0.55c-1.47-2.32-2.24-5.01-2.24-7.77c0-8.06,6.55-14.62,14.62-14.62c3.9,0,7.57,1.53,10.33,4.28 c2.76,2.77,4.27,6.43,4.27,10.34C70.47,43.38,63.92,49.94,55.86,49.94L55.86,49.94L55.86,49.94L55.86,49.94z M36.12,91.55h3.88 v4.94h4.24v-4.94h3.89v14.16h-3.89v-5.73h-4.24v5.73h-3.88V91.55L36.12,91.55z M58.43,103.37h-4.4l-0.63,2.33h-3.96l4.73-14.16 h4.25l4.71,14.16h-4.06L58.43,103.37L58.43,103.37z M57.61,100.31l-1.37-5.09l-1.38,5.09H57.61L57.61,100.31z M64.4,105.71V91.55 h6.46c1.2,0,2.12,0.12,2.75,0.35c0.63,0.23,1.15,0.66,1.53,1.29c0.39,0.63,0.58,1.4,0.58,2.3c0,0.78-0.15,1.46-0.45,2.03 c-0.3,0.57-0.7,1.04-1.23,1.39c-0.33,0.22-0.79,0.41-1.36,0.56c0.46,0.17,0.8,0.35,1.01,0.52c0.14,0.12,0.35,0.37,0.62,0.75 c0.27,0.38,0.45,0.68,0.54,0.88l1.88,4.09h-4.38l-2.07-4.32c-0.27-0.56-0.49-0.93-0.7-1.09c-0.28-0.22-0.6-0.33-0.95-0.33H68.3 v5.73H64.4L64.4,105.71z M68.3,97.3h1.64c0.18,0,0.52-0.07,1.03-0.19c0.25-0.06,0.47-0.21,0.63-0.44c0.16-0.24,0.25-0.51,0.25-0.82 c0-0.46-0.13-0.81-0.39-1.05c-0.26-0.25-0.74-0.37-1.45-0.37H68.3V97.3L68.3,97.3z M78,91.55h10.38v3.03h-6.49v2.25h6.01v2.89 h-6.01v2.79h6.68v3.2H78V91.55L78,91.55z"/><polygon class="st0" points="111.58,74.37 0,74.37 0,70.94 111.58,70.94 111.58,74.37"/></g></svg>