<?xml version="1.0" encoding="utf-8"?><svg version="1.1" id="Layer_1" xmlns="http://www.w3.org/2000/svg" xmlns:xlink="http://www.w3.org/1999/xlink" x="0px" y="0px" viewBox="0 0 111.58 122.88" style="enable-background:new 0 0 111.58 122.88" xml:space="preserve"><style type="text/css"><![CDATA[
	.st0{fill:#1A91DA;}
	.st1{fill-rule:evenodd;clip-rule:evenodd;fill:#1DA1F2;}
	.st2{fill:#FFFFFF;}
]]></style><g><path class="st1" d="M105.55,0H6.03C2.71,0,0,2.71,0,6.03v110.82c0,3.32,2.71,6.03,6.03,6.03h99.52c3.32,0,6.03-2.71,6.03-6.03 l0-110.82C111.58,2.71,108.87,0,105.55,0L105.55,0L105.55,0z"/><path class="st2" d="M23.02,101.02l3.68-0.26c0.08,0.67,0.24,1.19,0.49,1.54c0.4,0.57,0.97,0.86,1.71,0.86 c0.55,0,0.98-0.14,1.28-0.44c0.3-0.29,0.45-0.63,0.45-1.02c0-0.37-0.14-0.7-0.42-0.99s-0.94-0.56-1.98-0.82 c-1.7-0.43-2.91-1-3.64-1.72c-0.73-0.71-1.1-1.62-1.1-2.73c0-0.72,0.19-1.41,0.56-2.06c0.37-0.65,0.94-1.16,1.69-1.53 s1.78-0.55,3.09-0.55c1.6,0,2.83,0.34,3.67,1.01c0.84,0.67,1.34,1.74,1.5,3.21l-3.65,0.24c-0.1-0.64-0.3-1.11-0.61-1.4 c-0.31-0.29-0.74-0.44-1.29-0.44c-0.45,0-0.79,0.11-1.02,0.32c-0.23,0.21-0.34,0.48-0.34,0.79c0,0.22,0.09,0.43,0.28,0.61 c0.18,0.19,0.61,0.36,1.29,0.52c1.69,0.41,2.91,0.83,3.64,1.25c0.73,0.42,1.27,0.94,1.6,1.57c0.33,0.62,0.5,1.32,0.5,2.1 c0,0.91-0.22,1.74-0.67,2.51c-0.45,0.76-1.07,1.35-1.87,1.74c-0.8,0.4-1.8,0.59-3.02,0.59c-2.13,0-3.61-0.46-4.43-1.39 C23.59,103.63,23.12,102.45,23.02,101.02L23.02,101.02z M73.71,26.47c-1.32,0.59-2.74,0.98-4.22,1.16 c1.52-0.91,2.68-2.35,3.23-4.07c-1.42,0.84-3,1.45-4.67,1.78c-1.34-1.43-3.25-2.31-5.37-2.31c-4.06,0-7.35,3.29-7.35,7.35 c0,0.57,0.06,1.13,0.19,1.67c-6.11-0.31-11.52-3.23-15.15-7.68c-0.65,1.12-0.99,2.4-0.99,3.69v0c0,2.55,1.29,4.8,3.27,6.11 c-1.2-0.04-2.34-0.37-3.33-0.92v0.09c0,3.56,2.53,6.54,5.9,7.21c-0.62,0.17-1.27,0.26-1.94,0.26c-0.47,0-0.93-0.05-1.39-0.13 c0.94,2.92,3.65,5.04,6.86,5.11c-2.52,1.97-5.68,3.15-9.13,3.15c-0.6,0-1.18-0.04-1.75-0.11c3.26,2.09,7.12,3.3,11.27,3.3 c13.52,0,20.92-11.2,20.92-20.92c0-0.32-0.01-0.64-0.02-0.95C71.48,29.24,72.72,27.95,73.71,26.47L73.71,26.47L73.71,26.47 L73.71,26.47L73.71,26.47z M36.12,91.55h3.88v4.94h4.24v-4.94h3.89v14.16h-3.89v-5.73h-4.24v5.73h-3.88V91.55L36.12,91.55z M58.43,103.37h-4.4l-0.63,2.33h-3.96l4.73-14.16h4.25l4.71,14.16h-4.06L58.43,103.37L58.43,103.37z M57.61,100.31l-1.37-5.09 l-1.38,5.09H57.61L57.61,100.31z M64.4,105.71V91.55h6.46c1.2,0,2.12,0.12,2.75,0.35c0.63,0.23,1.15,0.66,1.53,1.29 c0.39,0.63,0.58,1.4,0.58,2.3c0,0.78-0.15,1.46-0.45,2.03c-0.3,0.57-0.7,1.04-1.23,1.39c-0.33,0.22-0.79,0.41-1.36,0.56 c0.46,0.17,0.8,0.35,1.01,0.52c0.14,0.12,0.35,0.37,0.62,0.75c0.27,0.38,0.45,0.68,0.54,0.88l1.88,4.09h-4.38l-2.07-4.32 c-0.27-0.56-0.49-0.93-0.7-1.09c-0.28-0.22-0.6-0.33-0.95-0.33H68.3v5.73H64.4L64.4,105.71z M68.3,97.3h1.64 c0.18,0,0.52-0.07,1.03-0.19c0.25-0.06,0.47-0.21,0.63-0.44c0.16-0.24,0.25-0.51,0.25-0.82c0-0.46-0.13-0.81-0.39-1.05 c-0.26-0.25-0.74-0.37-1.45-0.37H68.3V97.3L68.3,97.3z M78,91.55h10.38v3.03h-6.49v2.25h6.01v2.89h-6.01v2.79h6.68v3.2H78V91.55 L78,91.55z"/><polygon class="st0" points="111.58,74.37 0,74.37 0,70.94 111.58,70.94 111.58,74.37"/></g></svg>